<svg xmlns="http://www.w3.org/2000/svg" xmlns:xlink="http://www.w3.org/1999/xlink" width="500" zoomAndPan="magnify" viewBox="0 0 375 374.999991" height="500" preserveAspectRatio="xMidYMid meet" version="1.0"><defs><g/><clipPath id="c9ff21a308"><path d="M 130.125 72 L 244.875 72 L 244.875 205.425781 L 130.125 205.425781 Z M 130.125 72 " clip-rule="nonzero"/></clipPath></defs><g clip-path="url(#c9ff21a308)"><path fill="#000000" d="M 244.277344 151.261719 C 243.269531 148.578125 241.800781 146.191406 239.761719 144.160156 C 239.632812 144.027344 239.449219 143.949219 239.34375 143.878906 C 239.4375 143.515625 239.496094 143.296875 239.550781 143.082031 C 239.964844 141.460938 239.160156 140.398438 238.140625 139.835938 C 237.277344 139.355469 236.347656 139.054688 235.355469 138.9375 C 235.027344 138.902344 234.703125 138.84375 234.398438 138.800781 C 234.332031 138.621094 234.289062 138.519531 234.261719 138.410156 C 234.203125 138.148438 234.152344 137.894531 234.109375 137.636719 C 233.730469 135.511719 232.71875 133.753906 231.011719 132.40625 C 229.636719 131.324219 228.128906 130.484375 226.476562 129.90625 C 225.730469 129.644531 224.96875 129.429688 224.164062 129.40625 C 223.945312 129.398438 223.734375 129.320312 223.480469 129.269531 C 223.320312 127.699219 223.15625 126.167969 223.003906 124.632812 C 222.816406 122.761719 222.625 120.886719 222.460938 119.007812 C 222.320312 117.429688 222.191406 115.855469 222.132812 114.269531 C 222.003906 110.945312 222.320312 107.644531 222.980469 104.382812 C 224.257812 98.050781 226.640625 92.214844 230.679688 87.109375 C 232.09375 85.320312 233.609375 83.660156 235.5 82.371094 C 235.933594 82.074219 236.347656 81.742188 236.769531 81.421875 C 236.921875 81.308594 237.082031 81.191406 237.183594 81.039062 C 237.238281 80.960938 237.277344 80.832031 237.277344 80.722656 C 237.820312 80.441406 238.203125 79.890625 237.644531 79.429688 C 237.652344 79.414062 237.652344 79.398438 237.660156 79.382812 C 237.386719 78.863281 236.839844 78.648438 236.339844 78.414062 C 234.273438 77.488281 232.1875 76.636719 229.984375 76.066406 C 227.207031 75.347656 224.394531 74.792969 221.566406 74.328125 C 219.703125 74.027344 217.835938 73.808594 215.964844 73.578125 C 214.429688 73.390625 212.890625 73.230469 211.355469 73.070312 C 210.078125 72.941406 208.800781 72.8125 207.519531 72.710938 C 206.011719 72.59375 204.503906 72.484375 202.996094 72.414062 C 200.285156 72.269531 197.566406 72.132812 194.847656 72.035156 C 193.492188 71.984375 192.128906 72.015625 190.765625 72.023438 C 188.703125 72.03125 186.628906 72 184.554688 72.203125 C 183.28125 72.324219 181.996094 72.382812 180.71875 72.515625 C 179.894531 72.59375 179.066406 72.722656 178.261719 72.898438 C 177.753906 73.007812 177.285156 73.273438 176.777344 73.402344 C 175.253906 73.785156 173.890625 74.511719 172.625 75.40625 C 170.035156 77.25 167.621094 79.296875 165.425781 81.597656 C 162.132812 85.039062 159.472656 88.894531 157.640625 93.296875 C 156.515625 95.996094 155.792969 98.792969 155.546875 101.703125 C 155.320312 104.269531 155.523438 106.820312 156.046875 109.34375 C 156.429688 111.191406 157.039062 112.976562 157.65625 114.753906 C 158.046875 115.898438 158.363281 117.054688 158.574219 118.246094 C 158.613281 118.449219 158.582031 118.675781 158.582031 118.820312 C 157.386719 118.941406 156.253906 118.992188 155.152344 119.195312 C 154.042969 119.40625 152.949219 119.707031 151.890625 120.09375 C 150.832031 120.476562 149.796875 120.960938 148.8125 121.503906 C 147.789062 122.066406 146.796875 122.703125 145.875 123.410156 C 144.984375 124.097656 144.136719 124.863281 143.367188 125.6875 C 142.605469 126.507812 141.976562 127.445312 141.300781 128.308594 C 141.132812 128.308594 141.019531 128.3125 140.910156 128.308594 C 140.757812 128.300781 140.605469 128.269531 140.460938 128.277344 C 138.488281 128.292969 136.886719 129.117188 135.601562 130.570312 C 134.734375 131.5625 134.667969 132.667969 135.269531 133.824219 C 135.402344 134.085938 135.558594 134.332031 135.703125 134.585938 C 134.523438 135.8125 133.558594 137.160156 132.601562 138.511719 C 132.058594 139.277344 131.59375 140.101562 131.128906 140.917969 C 130.753906 141.578125 130.535156 142.308594 130.40625 143.050781 C 130.136719 144.652344 130.941406 145.960938 132.488281 146.472656 C 132.734375 146.554688 132.988281 146.625 133.21875 146.691406 C 134.277344 148.296875 135.328125 148.621094 137.613281 148.035156 C 138.265625 148.621094 139.113281 148.757812 139.980469 148.757812 C 140.019531 148.933594 140.054688 149.035156 140.054688 149.140625 C 140.070312 149.785156 140.445312 150.175781 140.980469 150.449219 C 141.25 150.589844 141.519531 150.726562 141.800781 150.839844 C 143.714844 151.636719 145.613281 152.46875 147.550781 153.207031 C 151.847656 154.847656 156.25 156.191406 160.664062 157.496094 C 161.054688 157.609375 161.4375 157.742188 161.878906 157.886719 C 161.808594 159.179688 161.527344 160.394531 161.410156 161.625 C 161.292969 162.824219 161.207031 164.023438 161.15625 165.234375 C 161.105469 166.46875 161.105469 167.714844 161.082031 168.980469 C 160.800781 169.074219 160.5625 169.171875 160.308594 169.222656 C 158.921875 169.492188 157.761719 170.171875 156.769531 171.125 C 155.699219 172.152344 155.269531 173.367188 155.972656 174.808594 C 156 174.871094 156 174.953125 156.023438 175.046875 C 155.480469 175.886719 154.929688 176.738281 154.335938 177.65625 C 154.03125 177.714844 153.660156 177.78125 153.289062 177.84375 C 150.355469 178.335938 147.847656 179.617188 145.941406 181.929688 C 144.410156 183.78125 143.339844 185.894531 142.742188 188.230469 C 142.453125 189.351562 142.324219 190.464844 143.136719 191.453125 C 143.300781 192.265625 143.933594 192.640625 144.597656 192.902344 C 145.398438 193.21875 146.238281 193.496094 147.078125 193.652344 C 148.519531 193.929688 149.976562 194.160156 151.441406 194.289062 C 153.058594 194.433594 154.691406 194.515625 156.304688 194.476562 C 158.378906 194.425781 160.453125 194.238281 162.503906 193.898438 C 164.78125 193.515625 167.003906 192.960938 169.078125 191.910156 C 170.019531 191.433594 170.976562 190.957031 171.738281 190.210938 C 172.433594 189.53125 173.050781 188.773438 173.683594 188.027344 C 173.847656 187.832031 173.941406 187.570312 174.023438 187.316406 C 174.195312 186.78125 174.304688 186.234375 174.3125 185.65625 C 174.335938 183.984375 174.03125 182.355469 173.632812 180.746094 C 173.183594 178.929688 172.457031 177.25 171.320312 175.761719 C 171.167969 175.558594 170.90625 175.414062 170.933594 175.109375 C 170.976562 175.039062 171.007812 174.964844 171.050781 174.910156 C 172.277344 173.460938 171.753906 171.597656 170.8125 170.578125 C 170.019531 169.722656 169.109375 169.09375 167.960938 168.828125 C 167.382812 168.6875 166.796875 168.566406 166.238281 168.4375 C 166.070312 166.851562 167.035156 160.964844 167.707031 159.476562 C 169.746094 159.945312 171.789062 160.4375 173.847656 160.894531 C 175.871094 161.34375 177.902344 161.78125 179.929688 162.179688 C 182.003906 162.59375 184.078125 162.96875 186.15625 163.332031 C 188.230469 163.691406 190.3125 164.003906 192.40625 164.34375 C 192.253906 165.261719 192.078125 166.109375 191.984375 166.960938 C 191.703125 169.355469 191.585938 171.761719 191.609375 174.179688 C 191.609375 174.394531 191.558594 174.605469 191.535156 174.808594 C 189.714844 175.203125 188.273438 176.152344 186.992188 177.339844 C 186.554688 177.742188 186.1875 178.242188 185.882812 178.757812 C 185.300781 179.738281 185.445312 180.730469 186.246094 181.546875 C 186.503906 181.816406 186.839844 182.011719 187.136719 182.234375 C 187.308594 182.363281 187.492188 182.488281 187.679688 182.617188 C 187.308594 183.535156 186.953125 184.398438 186.605469 185.273438 C 186.105469 185.410156 185.585938 185.515625 185.089844 185.691406 C 180.292969 187.382812 177.160156 190.628906 175.898438 195.597656 C 175.617188 196.703125 175.550781 197.8125 175.652344 198.960938 C 175.761719 200.140625 176.3125 201.015625 177.199219 201.730469 C 178.023438 202.394531 178.953125 202.902344 179.9375 203.292969 C 182.199219 204.191406 184.554688 204.730469 186.960938 204.941406 C 191.425781 205.332031 195.769531 204.675781 199.964844 203.113281 C 202.03125 202.347656 203.9375 201.277344 205.679688 199.929688 C 206.433594 199.351562 207.136719 198.722656 207.570312 197.855469 C 207.671875 197.652344 207.765625 197.441406 207.824219 197.234375 C 207.867188 197.066406 207.882812 196.863281 207.765625 196.734375 C 207.902344 196.394531 207.960938 196.03125 208 195.664062 C 208.09375 195.640625 208.179688 195.589844 208.246094 195.519531 C 208.453125 195.273438 208.5 194.984375 208.511719 194.679688 C 208.585938 193.398438 208.519531 192.128906 208.300781 190.855469 C 207.832031 188.164062 206.792969 185.734375 205.089844 183.601562 C 204.546875 182.929688 203.945312 182.300781 203.375 181.648438 C 203.207031 181.460938 203.046875 181.265625 202.875 181.070312 C 203.105469 180.738281 203.316406 180.46875 203.488281 180.1875 C 204.078125 179.242188 204.113281 178.277344 203.578125 177.296875 C 203.03125 176.296875 202.265625 175.550781 201.191406 175.15625 C 200.554688 174.914062 199.902344 174.742188 199.21875 174.675781 C 198.667969 174.625 198.101562 174.597656 197.609375 174.351562 C 197.597656 171.648438 198.152344 166.324219 198.574219 165.1875 C 198.851562 165.175781 199.148438 165.144531 199.445312 165.144531 C 200.277344 165.136719 201.105469 165.160156 201.9375 165.136719 C 203.054688 165.109375 204.070312 164.828125 204.960938 164.082031 C 206.179688 163.070312 207.433594 162.09375 208.535156 160.953125 C 209.898438 159.542969 211.265625 158.136719 212.578125 156.675781 C 215.726562 153.183594 218.34375 149.316406 220.410156 145.097656 C 221.878906 142.105469 222.96875 138.988281 223.316406 135.648438 C 223.359375 135.207031 223.445312 134.765625 223.511719 134.316406 C 226.671875 135.046875 229.296875 137.707031 229.503906 140.398438 C 229.179688 140.542969 228.832031 140.679688 228.496094 140.847656 C 227.460938 141.359375 226.597656 142.082031 226.046875 143.117188 C 225.460938 144.21875 225.65625 145.460938 226.535156 146.34375 C 226.773438 146.582031 227.039062 146.785156 227.332031 147.039062 C 227.105469 147.363281 226.894531 147.667969 226.6875 147.976562 C 225.953125 149.070312 225.214844 150.167969 224.480469 151.269531 C 224.082031 151.867188 223.800781 152.511719 223.613281 153.214844 C 223.03125 155.367188 224.148438 156.914062 225.648438 157.617188 C 225.953125 157.761719 226.25 157.90625 226.5625 158.050781 C 226.597656 158.382812 226.621094 158.6875 226.671875 158.976562 C 227.011719 160.777344 228.542969 161.804688 230.347656 161.4375 C 230.855469 161.335938 231.347656 161.167969 231.855469 161.03125 C 232.789062 162.203125 233.976562 162.246094 235.261719 161.878906 C 235.515625 161.804688 235.753906 161.6875 235.992188 161.574219 C 236.269531 161.441406 236.53125 161.304688 236.8125 161.160156 C 236.964844 161.195312 237.101562 161.253906 237.253906 161.269531 C 238.996094 161.4375 240.457031 160.886719 241.523438 159.484375 C 241.828125 159.078125 242.140625 158.796875 242.605469 158.578125 C 243.03125 158.382812 243.402344 158.007812 243.707031 157.640625 C 244.335938 156.867188 244.691406 155.953125 244.785156 154.957031 C 244.910156 153.660156 244.722656 152.441406 244.277344 151.261719 Z M 237.261719 80.636719 C 237.269531 80.648438 237.269531 80.664062 237.277344 80.679688 C 237.277344 80.664062 237.269531 80.648438 237.261719 80.636719 C 237.246094 80.605469 237.226562 80.578125 237.203125 80.546875 C 237.234375 80.578125 237.253906 80.605469 237.261719 80.636719 Z M 236.9375 80.398438 C 236.988281 80.410156 237.039062 80.433594 237.089844 80.460938 C 237.03125 80.425781 236.980469 80.402344 236.9375 80.398438 C 236.886719 80.382812 236.828125 80.375 236.769531 80.382812 C 236.828125 80.375 236.878906 80.382812 236.9375 80.398438 Z M 231.410156 80.917969 C 230.882812 81.511719 230.367188 82.109375 229.824219 82.6875 C 230.367188 82.109375 230.890625 81.511719 231.410156 80.917969 Z M 229.101562 78.589844 C 229.257812 78.625 229.417969 78.667969 229.570312 78.710938 C 229.410156 78.667969 229.257812 78.625 229.101562 78.589844 C 228.882812 78.539062 228.65625 78.488281 228.441406 78.4375 C 228.65625 78.480469 228.882812 78.539062 229.101562 78.589844 Z M 226.445312 77.996094 C 226.78125 78.0625 227.113281 78.132812 227.441406 78.207031 C 227.113281 78.132812 226.78125 78.066406 226.445312 77.996094 C 226.148438 77.9375 225.851562 77.871094 225.5625 77.816406 C 225.859375 77.871094 226.15625 77.9375 226.445312 77.996094 Z M 157.199219 106.394531 C 157.175781 106.183594 157.15625 105.984375 157.140625 105.773438 C 157.15625 105.976562 157.175781 106.183594 157.199219 106.394531 C 157.226562 106.664062 157.261719 106.929688 157.300781 107.191406 C 157.261719 106.921875 157.226562 106.664062 157.199219 106.394531 Z M 141.429688 149.234375 C 141.519531 149.273438 141.597656 149.316406 141.671875 149.351562 C 141.589844 149.316406 141.511719 149.277344 141.429688 149.234375 C 141.988281 148.664062 142.535156 148.121094 143.0625 147.578125 C 142.535156 148.121094 141.980469 148.664062 141.429688 149.234375 Z M 149.617188 140.085938 C 148.121094 141.875 146.59375 143.632812 145.046875 145.375 C 146.59375 143.632812 148.121094 141.875 149.617188 140.085938 C 149.957031 139.675781 150.296875 139.269531 150.628906 138.859375 C 150.296875 139.269531 149.964844 139.675781 149.617188 140.085938 Z M 157.199219 129.804688 C 156.574219 130.792969 155.9375 131.765625 155.269531 132.71875 C 155.929688 131.765625 156.574219 130.792969 157.199219 129.804688 C 157.429688 129.433594 157.65625 129.058594 157.878906 128.675781 C 157.65625 129.058594 157.429688 129.433594 157.199219 129.804688 Z M 158.15625 124.394531 C 157.65625 125.90625 156.929688 127.308594 156.089844 128.652344 C 154.292969 131.53125 152.339844 134.308594 150.246094 136.976562 C 150.085938 137.179688 149.898438 137.355469 149.710938 137.554688 C 149.253906 136.8125 148.824219 136.101562 148.367188 135.359375 C 148.492188 135.15625 148.601562 134.917969 148.761719 134.714844 C 149.882812 133.238281 149.363281 131.292969 148.304688 130.289062 C 147.925781 129.925781 147.476562 129.636719 147.011719 129.285156 C 148.660156 126.949219 154.550781 124.011719 158.167969 123.792969 C 158.394531 123.988281 158.21875 124.214844 158.15625 124.394531 Z M 158.980469 113.726562 C 158.902344 113.503906 158.828125 113.28125 158.757812 113.054688 C 158.828125 113.28125 158.910156 113.503906 158.980469 113.726562 C 159.054688 113.929688 159.117188 114.140625 159.183594 114.34375 C 159.117188 114.132812 159.054688 113.929688 158.980469 113.726562 Z M 160.460938 103.351562 C 160.453125 103.507812 160.453125 103.660156 160.453125 103.820312 C 160.453125 103.667969 160.453125 103.507812 160.460938 103.351562 C 160.46875 102.960938 160.488281 102.570312 160.519531 102.1875 C 160.488281 102.570312 160.46875 102.960938 160.460938 103.351562 Z M 173.753906 157.394531 C 173.210938 157.277344 172.675781 157.15625 172.128906 157.03125 C 172.667969 157.15625 173.210938 157.269531 173.753906 157.394531 C 174.203125 157.496094 174.652344 157.589844 175.101562 157.683594 C 174.652344 157.589844 174.203125 157.496094 173.753906 157.394531 Z M 178.304688 74.027344 C 178.132812 74.03125 177.964844 74.054688 177.800781 74.082031 C 177.964844 74.054688 178.132812 74.03125 178.304688 74.027344 C 178.625 74.011719 178.945312 73.988281 179.261719 73.960938 C 178.953125 73.988281 178.632812 74.011719 178.304688 74.027344 Z M 184.859375 73.585938 C 184.476562 73.605469 184.085938 73.628906 183.699219 73.648438 C 184.089844 73.628906 184.476562 73.605469 184.859375 73.585938 C 185.570312 73.546875 186.273438 73.535156 186.984375 73.527344 C 186.28125 73.535156 185.570312 73.546875 184.859375 73.585938 Z M 176.972656 199.699219 C 176.9375 199.65625 176.898438 199.621094 176.871094 199.574219 C 176.898438 199.613281 176.9375 199.65625 176.972656 199.699219 C 177.242188 199.988281 177.507812 200.285156 177.804688 200.539062 C 177.507812 200.285156 177.242188 199.988281 176.972656 199.699219 Z M 177.835938 193.828125 C 177.9375 193.59375 178.046875 193.371094 178.160156 193.148438 C 178.046875 193.363281 177.9375 193.59375 177.835938 193.828125 Z M 179.589844 190.976562 C 179.726562 190.820312 179.863281 190.660156 180.011719 190.5 C 179.863281 190.660156 179.726562 190.820312 179.589844 190.976562 Z M 180.625 202.0625 C 180.402344 201.984375 180.175781 201.898438 179.960938 201.804688 C 180.175781 201.890625 180.402344 201.976562 180.625 202.0625 C 181.003906 202.203125 181.378906 202.324219 181.757812 202.441406 C 181.378906 202.324219 181.003906 202.195312 180.625 202.0625 Z M 181.03125 189.53125 C 180.902344 189.640625 180.777344 189.75 180.664062 189.855469 C 180.777344 189.75 180.902344 189.640625 181.03125 189.53125 C 181.277344 189.320312 181.523438 189.125 181.777344 188.945312 C 181.523438 189.132812 181.277344 189.328125 181.03125 189.53125 Z M 188.09375 185.039062 C 188.1875 185.046875 188.273438 185.046875 188.367188 185.054688 C 188.273438 185.046875 188.1875 185.039062 188.09375 185.039062 Z M 188.382812 183.566406 C 188.46875 183.3125 188.570312 183.058594 188.664062 182.796875 C 188.570312 183.058594 188.46875 183.3125 188.382812 183.566406 Z M 188.460938 181.230469 C 188.152344 181.089844 187.839844 180.945312 187.554688 180.757812 C 187.46875 180.703125 187.398438 180.644531 187.324219 180.59375 C 187.390625 180.652344 187.46875 180.707031 187.554688 180.757812 C 187.839844 180.941406 188.152344 181.089844 188.460938 181.230469 C 188.722656 181.34375 188.984375 181.445312 189.246094 181.554688 C 188.984375 181.445312 188.722656 181.335938 188.460938 181.230469 Z M 190.160156 181.921875 C 190.28125 181.980469 190.40625 182.054688 190.519531 182.132812 C 190.527344 182.140625 190.542969 182.148438 190.550781 182.15625 C 190.542969 182.148438 190.527344 182.132812 190.519531 182.132812 C 190.40625 182.054688 190.28125 181.980469 190.160156 181.921875 Z M 190.527344 182.582031 C 190.550781 182.558594 190.566406 182.539062 190.578125 182.507812 C 190.566406 182.539062 190.550781 182.558594 190.527344 182.582031 Z M 207.621094 196.625 C 207.636719 196.632812 207.648438 196.640625 207.664062 196.648438 C 207.644531 196.640625 207.636719 196.632812 207.621094 196.625 C 207.585938 196.609375 207.542969 196.605469 207.496094 196.605469 C 207.542969 196.605469 207.578125 196.609375 207.621094 196.625 Z M 207.097656 196.691406 C 207.148438 196.660156 207.214844 196.632812 207.289062 196.617188 C 207.214844 196.640625 207.148438 196.660156 207.097656 196.691406 C 207.042969 196.71875 206.992188 196.761719 206.941406 196.800781 C 206.992188 196.761719 207.042969 196.726562 207.097656 196.691406 Z M 194.042969 186.261719 C 194.1875 186.34375 194.328125 186.421875 194.464844 186.507812 C 194.332031 186.421875 194.1875 186.335938 194.042969 186.261719 Z M 195.652344 179.421875 C 195.523438 179.464844 195.398438 179.492188 195.269531 179.523438 C 195.390625 179.492188 195.523438 179.464844 195.652344 179.421875 C 195.710938 179.398438 195.769531 179.386719 195.820312 179.363281 C 195.761719 179.386719 195.710938 179.40625 195.652344 179.421875 Z M 196.820312 163.324219 C 196.355469 163.257812 195.886719 163.191406 195.421875 163.121094 C 195.886719 163.191406 196.347656 163.257812 196.820312 163.324219 C 196.878906 163.332031 196.945312 163.335938 197 163.34375 C 196.9375 163.335938 196.878906 163.332031 196.820312 163.324219 Z M 202.894531 199.929688 C 203.175781 199.757812 203.453125 199.570312 203.726562 199.378906 C 203.460938 199.570312 203.175781 199.75 202.894531 199.929688 C 202.613281 200.105469 202.328125 200.277344 202.03125 200.445312 C 202.328125 200.277344 202.621094 200.105469 202.894531 199.929688 Z M 200.929688 182.3125 C 201.054688 182.261719 201.167969 182.207031 201.292969 182.15625 C 201.316406 182.148438 201.335938 182.132812 201.359375 182.125 C 201.335938 182.132812 201.316406 182.148438 201.292969 182.15625 C 201.175781 182.207031 201.054688 182.257812 200.929688 182.3125 C 200.691406 182.414062 200.445312 182.515625 200.199219 182.609375 C 200.445312 182.515625 200.691406 182.414062 200.929688 182.3125 Z M 199.394531 181.757812 C 199.421875 181.734375 199.453125 181.714844 199.480469 181.691406 C 199.453125 181.714844 199.421875 181.734375 199.394531 181.757812 C 199.355469 181.785156 199.320312 181.816406 199.292969 181.851562 C 199.320312 181.816406 199.355469 181.785156 199.394531 181.757812 Z M 199.761719 201.507812 C 199.921875 201.449219 200.082031 201.382812 200.234375 201.320312 C 200.074219 201.382812 199.914062 201.449219 199.761719 201.507812 C 199.566406 201.578125 199.371094 201.652344 199.175781 201.722656 C 199.371094 201.660156 199.566406 201.578125 199.761719 201.507812 Z M 198.582031 201.933594 C 198.191406 202.070312 197.792969 202.195312 197.398438 202.316406 C 197.792969 202.203125 198.191406 202.070312 198.582031 201.933594 Z M 197.414062 176.015625 C 197.449219 175.855469 197.496094 175.695312 197.539062 175.539062 C 197.496094 175.695312 197.449219 175.855469 197.414062 176.015625 Z M 194.160156 74.929688 C 195.691406 74.9375 197.21875 74.945312 198.75 74.964844 C 197.21875 74.945312 195.691406 74.9375 194.160156 74.929688 Z M 202.199219 164.039062 C 201.75 163.972656 201.300781 163.917969 200.851562 163.851562 C 201.308594 163.910156 201.757812 163.972656 202.199219 164.039062 C 202.320312 164.054688 202.4375 164.066406 202.546875 164.066406 C 202.4375 164.0625 202.320312 164.054688 202.199219 164.039062 Z M 202.4375 161.167969 C 202.359375 161.234375 202.269531 161.296875 202.191406 161.363281 C 202.277344 161.296875 202.359375 161.234375 202.4375 161.167969 C 203.175781 160.546875 203.894531 159.910156 204.589844 159.246094 C 203.902344 159.910156 203.175781 160.546875 202.4375 161.167969 Z M 206.613281 75.347656 C 207.273438 75.390625 207.933594 75.4375 208.59375 75.488281 C 207.933594 75.4375 207.273438 75.390625 206.613281 75.347656 C 206.351562 75.335938 206.085938 75.3125 205.824219 75.296875 C 206.085938 75.3125 206.34375 75.328125 206.613281 75.347656 Z M 210.101562 157.3125 C 209.855469 157.589844 209.605469 157.855469 209.355469 158.132812 C 209.605469 157.863281 209.855469 157.589844 210.101562 157.3125 C 210.257812 157.132812 210.417969 156.953125 210.585938 156.777344 C 210.425781 156.960938 210.265625 157.132812 210.101562 157.3125 Z M 215.101562 144.789062 C 213.703125 147.421875 212.121094 149.945312 210.332031 152.332031 C 209.105469 153.957031 207.824219 155.542969 206.546875 157.125 C 206.242188 157.5 205.933594 157.863281 205.605469 158.21875 C 205.933594 157.863281 206.25 157.5 206.546875 157.125 C 207.824219 155.542969 209.105469 153.957031 210.332031 152.332031 C 212.121094 149.945312 213.695312 147.421875 215.101562 144.789062 C 215.304688 144.40625 215.5 144.015625 215.6875 143.632812 C 215.5 144.015625 215.304688 144.398438 215.101562 144.789062 Z M 216.5 75.210938 C 216.203125 75.175781 215.898438 75.140625 215.601562 75.101562 C 215 75.03125 214.40625 74.964844 213.804688 74.902344 C 214.40625 74.964844 215.007812 75.03125 215.601562 75.101562 C 215.90625 75.140625 216.203125 75.175781 216.5 75.210938 C 216.839844 75.253906 217.183594 75.296875 217.523438 75.347656 C 217.183594 75.304688 216.839844 75.253906 216.5 75.210938 Z M 217.539062 110.003906 C 217.53125 110.308594 217.53125 110.617188 217.53125 110.921875 C 217.53125 110.609375 217.53125 110.308594 217.539062 110.003906 C 217.539062 109.792969 217.542969 109.589844 217.558594 109.382812 C 217.542969 109.585938 217.542969 109.792969 217.539062 110.003906 Z M 217.566406 112.527344 C 217.582031 112.984375 217.601562 113.445312 217.632812 113.902344 C 217.601562 113.445312 217.582031 112.984375 217.566406 112.527344 Z M 218.640625 133.738281 C 218.691406 133.339844 218.742188 132.933594 218.777344 132.53125 C 218.742188 132.933594 218.691406 133.339844 218.640625 133.738281 Z M 218.8125 125.753906 C 218.753906 125.054688 218.699219 124.34375 218.632812 123.644531 C 218.699219 124.351562 218.761719 125.054688 218.8125 125.753906 C 218.851562 126.222656 218.878906 126.695312 218.902344 127.15625 C 218.886719 126.695312 218.855469 126.222656 218.8125 125.753906 Z M 220.175781 141.730469 C 220.125 141.867188 220.066406 142.003906 220.007812 142.140625 C 220.066406 142.011719 220.117188 141.875 220.175781 141.730469 C 220.257812 141.535156 220.328125 141.332031 220.402344 141.128906 C 220.328125 141.332031 220.257812 141.535156 220.175781 141.730469 Z M 220.71875 97.023438 C 220.539062 97.449219 220.363281 97.875 220.199219 98.300781 C 220.363281 97.875 220.539062 97.441406 220.71875 97.023438 C 220.878906 96.652344 221.039062 96.277344 221.199219 95.917969 C 221.03125 96.277344 220.871094 96.648438 220.71875 97.023438 Z M 220.71875 97.023438 " fill-opacity="1" fill-rule="nonzero"/></g><path fill="#5e7e39" d="M 237.234375 79.710938 C 236.746094 79.667969 236.253906 79.644531 235.78125 79.515625 C 234.617188 79.195312 233.457031 78.871094 232.316406 78.472656 C 229.5 77.496094 226.589844 76.847656 223.65625 76.3125 C 221.285156 75.882812 218.894531 75.515625 216.5 75.203125 C 214.109375 74.894531 211.703125 74.675781 209.296875 74.445312 C 206.890625 74.222656 204.480469 73.996094 202.074219 73.835938 C 197.472656 73.527344 192.871094 73.441406 188.257812 73.503906 C 187.128906 73.519531 185.992188 73.519531 184.859375 73.578125 C 183.316406 73.648438 181.773438 73.773438 180.226562 73.882812 C 179.589844 73.925781 178.953125 73.996094 178.304688 74.019531 C 177.84375 74.039062 177.40625 74.132812 177.015625 74.378906 C 171 78.140625 165.695312 82.667969 161.828125 88.699219 C 159.867188 91.773438 158.394531 95.054688 157.625 98.636719 C 157.074219 101.195312 156.914062 103.769531 157.199219 106.378906 C 157.472656 108.910156 158.167969 111.320312 158.980469 113.714844 C 159.410156 114.964844 159.769531 116.222656 160.054688 117.511719 C 160.765625 120.726562 160.371094 123.800781 158.910156 126.738281 C 158.386719 127.777344 157.8125 128.804688 157.199219 129.789062 C 154.929688 133.40625 152.355469 136.804688 149.621094 140.074219 C 147.78125 142.273438 145.890625 144.425781 143.992188 146.574219 C 143.191406 147.480469 142.324219 148.308594 141.429688 149.230469 C 141.683594 149.34375 141.902344 149.460938 142.132812 149.554688 C 149.136719 152.476562 156.371094 154.71875 163.671875 156.765625 C 169.078125 158.28125 174.558594 159.535156 180.074219 160.589844 C 183.78125 161.296875 187.484375 161.984375 191.222656 162.5 C 193.09375 162.757812 194.957031 163.054688 196.820312 163.316406 C 198.609375 163.5625 200.414062 163.773438 202.207031 164.03125 C 202.859375 164.125 203.351562 163.960938 203.851562 163.527344 C 206.078125 161.585938 208.136719 159.492188 210.113281 157.304688 C 212.703125 154.449219 215.085938 151.433594 217.03125 148.09375 C 218.226562 146.039062 219.328125 143.941406 220.191406 141.722656 C 221.25 138.996094 221.835938 136.175781 221.929688 133.246094 C 222.015625 130.75 221.820312 128.277344 221.546875 125.804688 C 221.335938 123.933594 221.160156 122.058594 220.980469 120.1875 C 220.863281 118.984375 220.792969 117.785156 220.675781 116.585938 C 220.464844 114.4375 220.457031 112.289062 220.597656 110.148438 C 220.835938 106.570312 221.429688 103.046875 222.523438 99.617188 C 222.996094 98.152344 223.511719 96.691406 224.0625 95.25 C 225.488281 91.554688 227.648438 88.292969 230.113281 85.21875 C 231.058594 84.042969 232.160156 83.007812 233.273438 81.988281 C 234.203125 81.148438 235.3125 80.722656 236.484375 80.410156 C 236.632812 80.375 236.796875 80.351562 236.9375 80.390625 C 237.066406 80.425781 237.226562 80.519531 237.269531 80.628906 C 237.277344 80.65625 237.285156 80.6875 237.285156 80.722656 C 237.828125 80.441406 238.210938 79.890625 237.652344 79.429688 C 237.582031 79.660156 237.40625 79.730469 237.234375 79.710938 Z M 231.410156 80.917969 C 230.882812 81.511719 230.367188 82.109375 229.824219 82.6875 C 225.875 86.890625 222.9375 91.730469 220.710938 97.023438 C 219.617188 99.632812 218.71875 102.308594 218.132812 105.078125 C 217.792969 106.699219 217.550781 108.339844 217.53125 110.003906 C 217.492188 112.457031 217.640625 114.890625 217.929688 117.328125 C 218.269531 120.136719 218.582031 122.941406 218.804688 125.753906 C 219.34375 132.4375 218.269531 138.816406 215.085938 144.78125 C 213.6875 147.414062 212.109375 149.9375 210.316406 152.324219 C 209.09375 153.949219 207.808594 155.535156 206.535156 157.117188 C 205.324219 158.621094 203.902344 159.925781 202.429688 161.160156 C 202.257812 161.304688 202.074219 161.4375 201.886719 161.574219 C 201.4375 161.898438 200.945312 162.015625 200.386719 161.933594 C 197.996094 161.59375 195.601562 161.277344 193.21875 160.921875 C 190.570312 160.53125 187.910156 160.175781 185.28125 159.691406 C 181.421875 158.984375 177.574219 158.238281 173.746094 157.394531 C 165.09375 155.484375 156.566406 153.070312 148.101562 150.457031 C 147.308594 150.210938 146.550781 149.878906 145.78125 149.5625 C 145.375 149.394531 145.300781 149.121094 145.527344 148.75 C 145.605469 148.621094 145.699219 148.503906 145.796875 148.390625 C 149.59375 143.652344 153.253906 138.808594 156.835938 133.90625 C 158.394531 131.769531 159.734375 129.492188 160.894531 127.121094 C 161.425781 126.042969 161.867188 124.914062 162.28125 123.789062 C 163.171875 121.351562 163.257812 118.863281 162.613281 116.347656 C 162.140625 114.488281 161.671875 112.621094 161.257812 110.75 C 160.722656 108.320312 160.394531 105.851562 160.453125 103.351562 C 160.546875 99.640625 161.402344 96.132812 163.097656 92.820312 C 164.894531 89.300781 167.257812 86.1875 169.933594 83.296875 C 171.882812 81.191406 174.035156 79.289062 176.234375 77.445312 C 176.980469 76.816406 177.792969 76.253906 178.597656 75.703125 C 178.828125 75.542969 179.15625 75.472656 179.453125 75.441406 C 182.316406 75.167969 185.164062 74.863281 188.042969 74.894531 C 192.121094 74.9375 196.203125 74.914062 200.277344 74.988281 C 202.386719 75.023438 204.496094 75.210938 206.613281 75.34375 C 207.933594 75.429688 209.253906 75.515625 210.5625 75.644531 C 212.144531 75.796875 213.71875 75.976562 215.289062 76.171875 C 216.640625 76.339844 217.980469 76.5625 219.320312 76.738281 C 221.714844 77.046875 224.082031 77.503906 226.445312 77.988281 C 227.332031 78.167969 228.214844 78.371094 229.09375 78.582031 C 229.941406 78.785156 230.753906 79.074219 231.519531 79.492188 C 231.679688 79.578125 231.816406 79.710938 231.984375 79.824219 C 231.941406 80.367188 231.664062 80.636719 231.410156 80.917969 Z M 231.410156 80.917969 " fill-opacity="1" fill-rule="nonzero"/><path fill="#3b464e" d="M 193.28125 164.546875 C 193.429688 164.523438 193.542969 164.472656 193.644531 164.488281 C 194.871094 164.648438 196.101562 164.820312 197.285156 164.980469 C 197.5 165.226562 197.421875 165.457031 197.363281 165.660156 C 196.804688 167.472656 196.625 169.339844 196.472656 171.214844 C 196.363281 172.566406 196.167969 173.902344 196.050781 175.253906 C 195.992188 175.890625 196.039062 176.527344 196.015625 177.164062 C 196.007812 177.34375 195.992188 177.5625 195.890625 177.6875 C 195.289062 178.429688 193.761719 178.546875 193.203125 178.039062 C 193.027344 177.878906 192.882812 177.730469 192.882812 177.476562 C 192.882812 174.65625 192.847656 171.835938 192.882812 169.015625 C 192.898438 167.699219 193.066406 166.390625 193.167969 165.074219 C 193.179688 164.898438 193.238281 164.726562 193.28125 164.546875 Z M 143.945312 131.027344 C 145.011719 129.125 146.433594 127.527344 148.171875 126.222656 C 150.398438 124.554688 152.890625 123.410156 155.566406 122.660156 C 156.363281 122.433594 157.160156 122.203125 158.003906 122.183594 C 158.21875 122.175781 158.429688 122.136719 158.648438 122.117188 C 158.820312 121.480469 158.953125 120.910156 158.683594 120.292969 C 158.199219 120.332031 157.75 120.351562 157.300781 120.402344 C 156.964844 120.4375 156.632812 120.527344 156.292969 120.570312 C 152.847656 121.015625 149.769531 122.355469 146.957031 124.351562 C 145.1875 125.609375 143.65625 127.105469 142.460938 128.929688 C 141.882812 129.8125 141.4375 130.757812 141.171875 131.835938 C 141.902344 132.011719 142.597656 132.109375 143.394531 131.960938 C 143.605469 131.613281 143.78125 131.324219 143.945312 131.027344 Z M 223.582031 132.933594 C 223.671875 132.984375 223.699219 133.015625 223.734375 133.023438 C 227.941406 133.621094 231.5625 137.816406 231.222656 142.589844 C 231.214844 142.71875 231.28125 142.863281 231.308594 143.003906 C 232.035156 143.089844 232.609375 142.902344 233.117188 142.4375 C 233 141.101562 232.90625 139.792969 232.773438 138.488281 C 232.601562 136.804688 232.070312 135.242188 230.839844 134.027344 C 228.976562 132.199219 226.75 130.984375 224.191406 130.390625 C 224.019531 130.347656 223.828125 130.382812 223.605469 130.382812 C 223.496094 131.273438 223.496094 132.117188 223.582031 132.933594 Z M 163.214844 171.835938 C 163.679688 171.898438 164.113281 171.804688 164.488281 171.515625 C 164.859375 171.234375 164.699219 170.828125 164.707031 170.46875 C 164.707031 170.394531 164.699219 170.316406 164.699219 170.242188 C 164.6875 168.210938 164.792969 166.195312 165.136719 164.183594 C 165.425781 162.492188 165.671875 160.785156 166.300781 159.15625 C 165.738281 158.804688 165.121094 158.761719 164.546875 158.59375 C 163.988281 158.433594 163.4375 158.179688 162.808594 158.21875 C 162.375 162.6875 162.503906 167.113281 162.46875 171.640625 C 162.785156 171.71875 162.996094 171.804688 163.214844 171.835938 Z M 163.214844 171.835938 " fill-opacity="1" fill-rule="nonzero"/><path fill="#97a685" d="M 231.214844 80.035156 C 231.027344 80.257812 230.875 80.460938 230.703125 80.644531 C 228.46875 82.949219 226.332031 85.34375 224.578125 88.035156 C 221.242188 93.160156 218.777344 98.679688 217.421875 104.652344 C 216.761719 107.566406 216.589844 110.53125 216.796875 113.527344 C 217.015625 116.570312 217.398438 119.59375 217.734375 122.621094 C 218.089844 125.8125 218.253906 129.015625 217.972656 132.210938 C 217.640625 136.03125 216.625 139.683594 214.929688 143.140625 C 213.375 146.292969 211.449219 149.214844 209.339844 152.027344 C 206.984375 155.171875 204.351562 158.074219 201.605469 160.878906 C 201.214844 161.277344 200.820312 161.378906 200.292969 161.296875 C 197.386719 160.84375 194.480469 160.421875 191.570312 159.960938 C 187.105469 159.25 182.648438 158.5 178.21875 157.566406 C 173.015625 156.476562 167.839844 155.28125 162.714844 153.878906 C 157.878906 152.546875 153.050781 151.210938 148.289062 149.640625 C 147.613281 149.417969 146.910156 149.265625 146.144531 149.054688 C 146.28125 148.875 146.375 148.730469 146.484375 148.597656 C 147.417969 147.464844 148.375 146.351562 149.273438 145.1875 C 151.980469 141.699219 154.675781 138.207031 157.328125 134.691406 C 158.988281 132.496094 160.417969 130.136719 161.632812 127.664062 C 162.199219 126.519531 162.683594 125.328125 163.128906 124.132812 C 164.105469 121.480469 164.207031 118.777344 163.484375 116.035156 C 162.988281 114.183594 162.53125 112.316406 162.128906 110.445312 C 161.664062 108.3125 161.335938 106.148438 161.351562 103.949219 C 161.378906 100.125 162.222656 96.5 163.996094 93.089844 C 165.738281 89.746094 167.976562 86.78125 170.515625 84.035156 C 172.101562 82.3125 173.835938 80.742188 175.589844 79.195312 C 176.546875 78.351562 177.507812 77.496094 178.40625 76.585938 C 178.84375 76.144531 179.320312 75.941406 179.910156 75.914062 C 182.054688 75.796875 184.207031 75.617188 186.351562 75.59375 C 190.316406 75.558594 194.28125 75.566406 198.25 75.644531 C 200.8125 75.695312 203.375 75.890625 205.9375 76.035156 C 207.296875 76.117188 208.652344 76.195312 210.007812 76.324219 C 211.695312 76.492188 213.382812 76.6875 215.066406 76.902344 C 216.785156 77.128906 218.5 77.394531 220.21875 77.628906 C 223.140625 78.023438 226.003906 78.667969 228.859375 79.363281 C 229.652344 79.527344 230.441406 79.628906 231.214844 80.035156 Z M 179.109375 126.550781 C 179.167969 127.339844 179.199219 128.277344 179.308594 129.210938 C 179.515625 130.984375 180.023438 132.667969 180.96875 134.199219 C 181.675781 135.34375 182.597656 136.269531 183.800781 136.890625 C 186.246094 138.148438 188.671875 137.984375 191.058594 136.730469 C 192.3125 136.074219 193.332031 135.125 194.183594 134 C 195.378906 132.414062 196.175781 130.636719 196.710938 128.742188 C 197.117188 127.324219 197.347656 125.882812 197.480469 124.417969 C 197.648438 122.5 197.742188 120.589844 197.191406 118.703125 C 196.898438 117.71875 196.792969 117.605469 195.789062 117.886719 C 195.683594 117.914062 195.566406 117.9375 195.464844 117.972656 C 194.261719 118.4375 193.007812 118.667969 191.746094 118.890625 C 189.109375 119.363281 186.496094 119.210938 183.886719 118.660156 C 183.105469 118.492188 182.378906 118.195312 181.675781 117.828125 C 181.257812 117.613281 180.9375 117.660156 180.683594 118.039062 C 180.460938 118.378906 180.277344 118.761719 180.167969 119.152344 C 179.515625 121.523438 179.210938 123.945312 179.109375 126.550781 Z M 196.394531 108.710938 C 196.414062 108.714844 196.4375 108.714844 196.457031 108.722656 C 196.472656 109.0625 196.480469 109.402344 196.515625 109.734375 C 196.566406 110.15625 196.742188 110.53125 197.039062 110.835938 C 197.5 111.3125 198.21875 111.304688 198.609375 110.769531 C 198.828125 110.472656 199.023438 110.125 199.109375 109.773438 C 199.3125 108.898438 199.464844 108 199.355469 107.097656 C 199.3125 106.726562 199.257812 106.34375 199.125 105.996094 C 198.804688 105.152344 197.777344 105 197.234375 105.714844 C 197.039062 105.976562 196.863281 106.292969 196.792969 106.613281 C 196.617188 107.304688 196.523438 108.015625 196.394531 108.710938 Z M 178.707031 107.589844 C 178.726562 107.882812 178.726562 108.222656 178.785156 108.558594 C 178.828125 108.808594 178.910156 109.070312 179.023438 109.300781 C 179.453125 110.097656 180.320312 110.132812 180.835938 109.390625 C 180.9375 109.238281 181.023438 109.0625 181.082031 108.882812 C 181.429688 107.753906 181.554688 106.613281 181.328125 105.441406 C 181.316406 105.367188 181.300781 105.289062 181.277344 105.222656 C 180.980469 104.378906 179.964844 104.1875 179.394531 104.867188 C 179.074219 105.253906 178.910156 105.714844 178.835938 106.199219 C 178.761719 106.648438 178.75 107.097656 178.707031 107.589844 Z M 203.835938 150.957031 C 203.648438 150.957031 203.519531 150.921875 203.4375 150.964844 C 203.03125 151.195312 202.757812 151.542969 202.574219 151.96875 C 202.496094 152.15625 202.480469 152.359375 202.683594 152.445312 C 202.792969 152.496094 203.003906 152.476562 203.089844 152.402344 C 203.496094 152.050781 203.816406 151.644531 203.835938 150.957031 Z M 202.824219 149.945312 C 202.707031 149.871094 202.621094 149.792969 202.582031 149.808594 C 202.039062 150.082031 201.574219 150.445312 201.320312 151.015625 C 201.292969 151.085938 201.351562 151.246094 201.417969 151.296875 C 201.488281 151.355469 201.632812 151.363281 201.726562 151.332031 C 201.828125 151.304688 201.929688 151.222656 201.996094 151.136719 C 202.277344 150.753906 202.546875 150.347656 202.824219 149.945312 Z M 202.824219 149.945312 " fill-opacity="1" fill-rule="nonzero"/><path fill="#ffffff" d="M 207.984375 195.640625 C 207.941406 196.011719 207.890625 196.378906 207.746094 196.710938 C 207.707031 196.675781 207.671875 196.640625 207.613281 196.617188 C 207.46875 196.558594 207.238281 196.605469 207.09375 196.683594 C 206.867188 196.8125 206.6875 197.015625 206.484375 197.191406 C 204.460938 198.96875 202.292969 200.539062 199.757812 201.5 C 195.582031 203.089844 191.28125 203.921875 186.789062 203.429688 C 184.679688 203.199219 182.621094 202.78125 180.625 202.050781 C 179.664062 201.703125 178.75 201.261719 177.9375 200.632812 C 177.582031 200.355469 177.277344 200.015625 176.972656 199.683594 C 176.675781 199.359375 176.574219 198.960938 176.640625 198.527344 C 176.75 197.78125 176.820312 197.03125 177 196.300781 C 177.652344 193.640625 178.894531 191.316406 181.03125 189.515625 C 184.027344 186.992188 187.402344 186.046875 191.261719 186.863281 C 192.769531 187.179688 194.082031 187.910156 195.289062 188.828125 C 195.53125 189.011719 195.769531 189.199219 196.023438 189.351562 C 196.210938 189.464844 196.488281 189.257812 196.5 189.023438 C 196.523438 188.613281 196.320312 188.300781 196.09375 188 C 195.285156 186.898438 194.183594 186.183594 192.90625 185.757812 C 191.6875 185.351562 190.425781 185.097656 189.136719 185.078125 C 188.804688 185.070312 188.46875 185.039062 188.101562 185.019531 C 188.113281 184.195312 188.390625 183.515625 188.671875 182.785156 C 189.136719 182.785156 189.550781 182.796875 189.957031 182.777344 C 190.136719 182.761719 190.3125 182.675781 190.476562 182.601562 C 190.628906 182.53125 190.660156 182.207031 190.519531 182.117188 C 190.367188 182.015625 190.203125 181.921875 190.027344 181.851562 C 189.507812 181.632812 188.976562 181.4375 188.457031 181.214844 C 188.144531 181.078125 187.832031 180.933594 187.550781 180.746094 C 186.859375 180.296875 186.75 179.804688 187.15625 179.117188 C 187.273438 178.921875 187.398438 178.734375 187.550781 178.5625 C 188.550781 177.445312 189.761719 176.628906 191.128906 176.042969 C 191.253906 175.992188 191.414062 176.035156 191.558594 176.035156 C 191.695312 176.652344 191.871094 177.230469 191.941406 177.824219 C 192 178.359375 192.222656 178.75 192.628906 179.066406 C 193.058594 179.398438 193.523438 179.617188 194.082031 179.632812 C 194.617188 179.636719 195.132812 179.582031 195.640625 179.414062 C 196.558594 179.117188 197.097656 178.574219 197.160156 177.554688 C 197.203125 176.90625 197.328125 176.238281 197.523438 175.53125 C 198.523438 175.828125 199.457031 176.101562 200.394531 176.390625 C 201.148438 176.628906 201.699219 177.121094 202.105469 177.792969 C 202.453125 178.371094 202.472656 178.945312 202.023438 179.472656 C 201.734375 179.8125 201.410156 180.128906 201.0625 180.417969 C 200.511719 180.882812 199.929688 181.300781 199.371094 181.75 C 199.226562 181.867188 199.109375 182.015625 199.007812 182.175781 C 198.894531 182.355469 199.039062 182.683594 199.257812 182.71875 C 199.4375 182.753906 199.648438 182.792969 199.808594 182.742188 C 200.300781 182.566406 200.785156 182.363281 201.269531 182.148438 C 201.53125 182.03125 201.777344 181.871094 202.039062 181.726562 C 202.65625 182.480469 203.234375 183.175781 203.792969 183.882812 C 205.535156 186.097656 206.613281 188.589844 206.925781 191.398438 C 207.027344 192.292969 207.070312 193.199219 207.179688 194.09375 C 207.230469 194.535156 207.316406 194.984375 207.453125 195.410156 C 207.535156 195.621094 207.773438 195.691406 207.984375 195.640625 Z M 157.15625 177.800781 C 158.980469 177.980469 160.675781 178.597656 162.292969 179.421875 C 163.070312 179.820312 163.78125 180.324219 164.351562 180.984375 C 164.589844 181.257812 164.757812 181.605469 164.933594 181.929688 C 164.96875 181.996094 164.894531 182.15625 164.832031 182.21875 C 164.757812 182.285156 164.628906 182.3125 164.527344 182.300781 C 164.425781 182.285156 164.316406 182.21875 164.230469 182.15625 C 163.132812 181.324219 161.867188 180.832031 160.632812 180.273438 C 158.597656 179.363281 156.464844 178.980469 154.242188 179.152344 C 151.371094 179.378906 148.914062 180.484375 147.027344 182.691406 C 145.460938 184.519531 144.433594 186.644531 143.765625 188.953125 C 143.5625 189.648438 143.578125 190.363281 143.738281 191.078125 C 144.671875 191.800781 145.757812 192.105469 146.875 192.292969 C 148.171875 192.519531 149.476562 192.714844 150.789062 192.828125 C 152.363281 192.972656 153.949219 193.125 155.53125 193.105469 C 158.097656 193.074219 160.648438 192.820312 163.179688 192.34375 C 166.308594 191.75 169.1875 190.644531 171.578125 188.46875 C 172.40625 188.011719 172.636719 187.246094 172.703125 186.386719 C 172.730469 186.046875 172.753906 185.707031 172.753906 185.371094 C 172.753906 182.847656 172.210938 180.441406 171.160156 178.15625 C 170.78125 177.339844 170.367188 176.542969 169.761719 175.839844 C 169.367188 175.941406 169.007812 176.066406 168.644531 176.117188 C 168.273438 176.175781 167.890625 176.203125 167.519531 176.179688 C 167.308594 176.167969 167.101562 176.03125 166.910156 175.914062 C 166.730469 175.796875 166.707031 175.4375 166.882812 175.3125 C 167.09375 175.160156 167.324219 175.039062 167.5625 174.9375 C 168.152344 174.683594 168.773438 174.496094 169.339844 174.207031 C 170.210938 173.757812 170.464844 173.007812 170.058594 172.117188 C 169.917969 171.8125 169.710938 171.539062 169.492188 171.277344 C 168.621094 170.25 167.410156 169.898438 166.136719 169.535156 C 165.996094 170.09375 166.078125 170.578125 166.0625 171.0625 C 166.046875 171.753906 165.746094 172.285156 165.128906 172.628906 C 164.628906 172.914062 164.097656 173.085938 163.511719 173.070312 C 162.882812 173.058594 162.335938 172.832031 161.84375 172.457031 C 161.410156 172.125 161.378906 171.625 161.324219 171.132812 C 161.285156 170.84375 161.324219 170.519531 161.011719 170.28125 C 159.640625 170.511719 158.503906 171.191406 157.558594 172.210938 C 157.40625 172.378906 157.285156 172.574219 157.191406 172.773438 C 156.886719 173.410156 156.996094 173.984375 157.574219 174.359375 C 158.046875 174.664062 158.574219 174.871094 159.097656 175.089844 C 159.371094 175.207031 159.683594 175.242188 159.960938 175.355469 C 160.074219 175.40625 160.226562 175.550781 160.226562 175.652344 C 160.226562 175.769531 160.113281 175.949219 160.003906 176 C 159.769531 176.109375 159.511719 176.195312 159.257812 176.21875 C 158.878906 176.246094 158.496094 176.253906 158.125 176.195312 C 157.761719 176.136719 157.414062 175.992188 157.003906 175.871094 C 156.574219 176.390625 156.148438 176.90625 155.625 177.546875 C 156.261719 177.664062 156.703125 177.757812 157.15625 177.800781 Z M 234.371094 140.253906 C 234.363281 141.042969 234.339844 141.832031 234.375 142.625 C 234.390625 143.089844 234.222656 143.421875 233.863281 143.6875 C 233.179688 144.1875 232.40625 144.304688 231.609375 144.210938 C 230.875 144.117188 230.355469 143.734375 230.230469 142.9375 C 230.195312 142.675781 230.121094 142.417969 230.035156 142.171875 C 229.960938 141.96875 229.847656 141.789062 229.738281 141.585938 C 228.707031 141.910156 227.953125 142.515625 227.390625 143.347656 C 226.78125 144.238281 227.011719 145.121094 227.96875 145.621094 C 228.570312 145.9375 229.230469 146.117188 229.910156 146.199219 C 230.171875 146.226562 230.441406 146.242188 230.695312 146.292969 C 230.789062 146.3125 230.898438 146.421875 230.917969 146.515625 C 230.941406 146.601562 230.890625 146.75 230.816406 146.820312 C 230.511719 147.132812 230.121094 147.261719 229.703125 147.289062 C 229.179688 147.328125 228.65625 147.347656 228.097656 147.378906 C 227.476562 148.984375 226.546875 150.398438 225.691406 151.855469 C 225.503906 152.179688 225.316406 152.503906 225.179688 152.859375 C 224.707031 154.046875 224.808594 155.109375 225.800781 156.054688 C 226.433594 156.65625 227.0625 157.234375 227.808594 157.691406 C 227.890625 157.742188 227.925781 157.863281 227.976562 157.941406 C 227.84375 158.101562 227.738281 158.238281 227.605469 158.398438 C 227.78125 158.703125 227.925781 159.011719 228.113281 159.289062 C 228.484375 159.816406 229 160.070312 229.664062 160.03125 C 230.203125 160.003906 230.703125 159.867188 231.179688 159.628906 C 231.550781 159.445312 231.925781 159.257812 232.316406 159.128906 C 232.507812 159.0625 232.738281 159.136719 233.019531 159.144531 C 232.917969 159.578125 232.839844 159.929688 232.746094 160.351562 C 233.203125 160.699219 233.671875 160.921875 234.296875 160.761719 C 234.972656 160.589844 235.550781 160.273438 236.109375 159.875 C 236.382812 159.679688 236.660156 159.484375 236.964844 159.332031 C 237.261719 159.179688 237.558594 159.339844 237.667969 159.671875 C 237.71875 159.832031 237.574219 160.054688 237.804688 160.148438 C 237.890625 160.148438 237.972656 160.164062 238.042969 160.148438 C 239.5 159.800781 240.558594 159.042969 241.015625 157.53125 C 241.261719 156.699219 241.335938 156.722656 242.25 157.03125 C 243.207031 156.011719 243.574219 154.789062 243.34375 153.410156 C 243.234375 152.742188 243.039062 152.085938 242.820312 151.449219 C 242.242188 149.765625 241.359375 148.230469 240.335938 146.777344 C 239.855469 146.105469 239.386719 145.425781 238.777344 144.824219 C 238.523438 145.019531 238.296875 145.230469 238.039062 145.375 C 237.710938 145.554688 237.363281 145.714844 237.007812 145.824219 C 236.847656 145.875 236.636719 145.816406 236.472656 145.757812 C 236.246094 145.679688 236.144531 145.375 236.289062 145.199219 C 236.632812 144.804688 237.007812 144.425781 237.339844 144.023438 C 237.601562 143.703125 237.878906 143.378906 238.042969 143.015625 C 238.4375 142.191406 238.269531 141.546875 237.515625 141.058594 C 236.59375 140.457031 235.574219 140.109375 234.484375 140.015625 C 234.421875 140.125 234.371094 140.1875 234.371094 140.253906 Z M 133.371094 144.78125 C 133.472656 144.613281 133.660156 144.5 133.847656 144.585938 C 133.964844 144.636719 134.082031 144.789062 134.101562 144.917969 C 134.152344 145.171875 134.132812 145.445312 134.167969 145.707031 C 134.277344 146.496094 134.582031 146.820312 135.378906 146.972656 C 135.855469 147.058594 136.34375 147.117188 136.808594 146.957031 C 136.828125 146.734375 136.828125 146.546875 136.871094 146.363281 C 136.929688 146.105469 137.21875 146.019531 137.394531 146.207031 C 137.496094 146.3125 137.589844 146.4375 137.675781 146.558594 C 138.226562 147.347656 138.988281 147.628906 139.9375 147.535156 C 140.425781 147.484375 140.910156 147.527344 141.34375 147.527344 C 142.902344 146.054688 148.128906 139.835938 148.746094 138.722656 C 148.457031 137.808594 148.011719 136.949219 147.460938 136.117188 C 147.289062 136.167969 147.144531 136.210938 147.007812 136.246094 C 146.859375 136.292969 146.714844 136.347656 146.570312 136.363281 C 146.265625 136.398438 145.96875 136.03125 146.105469 135.757812 C 146.238281 135.488281 146.410156 135.242188 146.605469 135.019531 C 146.925781 134.648438 147.296875 134.316406 147.609375 133.949219 C 148.09375 133.375 148.144531 132.71875 147.875 132.039062 C 147.542969 131.191406 146.933594 130.628906 146.003906 130.296875 C 145.746094 130.648438 145.5 130.976562 145.273438 131.316406 C 145.019531 131.691406 144.789062 132.082031 144.546875 132.464844 C 144.191406 133.03125 143.648438 133.289062 143.011719 133.230469 C 142.417969 133.175781 141.832031 133.023438 141.234375 132.90625 C 140.589844 132.777344 140.308594 132.191406 140.308594 131.648438 C 140.308594 131.386719 140.378906 131.128906 140.429688 130.875 C 140.519531 130.449219 140.605469 130.019531 140.714844 129.5 C 140.25 129.578125 139.878906 129.601562 139.53125 129.703125 C 138.460938 130.007812 137.523438 130.550781 136.769531 131.378906 C 136.21875 131.980469 136.285156 132.828125 136.707031 133.347656 C 136.871094 133.550781 137.039062 133.765625 137.242188 133.925781 C 137.683594 134.273438 138.15625 134.589844 138.597656 134.929688 C 138.707031 135.019531 138.835938 135.148438 138.851562 135.269531 C 138.878906 135.496094 138.664062 135.605469 138.488281 135.625 C 138.234375 135.65625 137.964844 135.632812 137.710938 135.589844 C 137.277344 135.503906 136.851562 135.378906 136.464844 135.277344 C 136.34375 135.367188 136.269531 135.402344 136.226562 135.453125 C 134.804688 137.3125 133.429688 139.199219 132.363281 141.289062 C 132.09375 141.816406 131.921875 142.410156 131.769531 142.988281 C 131.59375 143.644531 131.769531 144.261719 132.21875 144.773438 C 132.4375 145.019531 132.695312 145.238281 133.042969 145.570312 C 133.195312 145.1875 133.253906 144.96875 133.371094 144.78125 Z M 181.242188 119.671875 C 181.089844 120.902344 180.960938 122.136719 180.792969 123.375 C 180.515625 125.40625 180.554688 127.433594 180.851562 129.457031 C 181.074219 131.003906 181.570312 132.457031 182.476562 133.753906 C 183.300781 134.9375 184.417969 135.71875 185.84375 136.066406 C 187.441406 136.449219 188.910156 136.144531 190.316406 135.394531 C 191.433594 134.792969 192.324219 133.925781 193.058594 132.90625 C 194.183594 131.359375 194.878906 129.617188 195.347656 127.777344 C 195.695312 126.425781 195.863281 125.039062 195.972656 123.648438 C 196.082031 122.296875 196.023438 120.953125 195.914062 119.613281 C 195.835938 119.59375 195.796875 119.570312 195.761719 119.578125 C 195.617188 119.605469 195.472656 119.652344 195.328125 119.6875 C 192.875 120.367188 190.382812 120.75 187.839844 120.640625 C 185.605469 120.546875 183.394531 120.289062 181.371094 119.101562 C 181.320312 119.3125 181.269531 119.492188 181.242188 119.671875 Z M 182.308594 126.542969 C 182.511719 126.628906 182.714844 126.746094 182.878906 126.890625 C 184.664062 128.363281 186.65625 128.605469 188.832031 127.980469 C 190.070312 127.628906 191.21875 127.0625 192.332031 126.441406 C 192.820312 126.167969 193.320312 125.90625 193.769531 125.667969 C 194.042969 125.820312 194.117188 126.015625 193.980469 126.171875 C 193.738281 126.464844 193.484375 126.746094 193.1875 126.960938 C 191.578125 128.140625 189.773438 128.863281 187.800781 129.152344 C 186.417969 129.363281 185.097656 129.066406 183.859375 128.460938 C 183.070312 128.070312 182.488281 127.4375 181.972656 126.679688 C 182.125 126.609375 182.242188 126.515625 182.308594 126.542969 Z M 182.308594 126.542969 " fill-opacity="1" fill-rule="nonzero"/><g fill="#272727" fill-opacity="1"><g transform="translate(83.98828, 233.010438)"><g><path d="M 19.734375 -14.40625 C 21.828125 -14.019531 23.445312 -13.191406 24.59375 -11.921875 C 25.738281 -10.660156 26.3125 -9.191406 26.3125 -7.515625 C 26.3125 -5.285156 25.351562 -3.492188 23.4375 -2.140625 C 21.519531 -0.796875 18.910156 -0.0820312 15.609375 0 L 1.328125 0 L 1.078125 -1.328125 C 1.867188 -1.847656 3.035156 -2.410156 4.578125 -3.015625 L 4.578125 -24.703125 L 1.65625 -25.0625 L 1.6875 -27.171875 C 5.707031 -27.390625 10.003906 -27.5 14.578125 -27.5 C 17.710938 -27.5 20.226562 -26.851562 22.125 -25.5625 C 24.03125 -24.269531 24.984375 -22.59375 24.984375 -20.53125 C 24.984375 -19.144531 24.535156 -17.859375 23.640625 -16.671875 C 22.742188 -15.492188 21.441406 -14.738281 19.734375 -14.40625 Z M 10.859375 -23.65625 L 10.859375 -15.53125 L 12.765625 -15.53125 C 14.710938 -15.53125 16.175781 -15.945312 17.15625 -16.78125 C 18.132812 -17.625 18.625 -18.648438 18.625 -19.859375 C 18.625 -20.847656 18.3125 -21.773438 17.6875 -22.640625 C 17.070312 -23.515625 16.296875 -24.0625 15.359375 -24.28125 Z M 14.171875 -3.1875 L 14.859375 -3.140625 C 16.398438 -3.140625 17.582031 -3.578125 18.40625 -4.453125 C 19.238281 -5.335938 19.65625 -6.382812 19.65625 -7.59375 C 19.65625 -9 19.148438 -10.210938 18.140625 -11.234375 C 17.140625 -12.253906 15.882812 -12.773438 14.375 -12.796875 L 10.859375 -12.796875 L 10.859375 -3.515625 Z M 14.171875 -3.1875 "/></g></g></g><g fill="#272727" fill-opacity="1"><g transform="translate(111.56672, 233.010438)"><g><path d="M 25.03125 -1.984375 L 19.953125 0.65625 C 19.253906 0.632812 18.519531 0.285156 17.75 -0.390625 C 16.976562 -1.066406 16.414062 -1.859375 16.0625 -2.765625 C 13.613281 -1.054688 11.257812 0.0820312 9 0.65625 C 8.144531 0.601562 7.242188 0.316406 6.296875 -0.203125 C 5.347656 -0.722656 4.582031 -1.410156 4 -2.265625 C 3.613281 -2.847656 3.410156 -4.128906 3.390625 -6.109375 L 3.390625 -16.59375 L 0.296875 -16.96875 L 0 -18.953125 C 2.363281 -19.859375 4.8125 -20.34375 7.34375 -20.40625 L 9.375 -18.578125 L 9.375 -7.265625 C 9.375 -4.867188 10.253906 -3.671875 12.015625 -3.671875 C 13.003906 -3.671875 14.1875 -4.015625 15.5625 -4.703125 L 15.5625 -16.640625 L 12.96875 -17.0625 L 12.671875 -19.03125 C 14.710938 -19.832031 17 -20.289062 19.53125 -20.40625 L 21.5625 -18.578125 L 21.5625 -4.703125 C 21.5625 -3.960938 21.90625 -3.59375 22.59375 -3.59375 L 24.65625 -3.84375 Z M 25.03125 -1.984375 "/></g></g></g><g fill="#272727" fill-opacity="1"><g transform="translate(136.833201, 233.010438)"><g><path d="M 23.5 -1.984375 L 18.421875 0.65625 C 17.734375 0.632812 17.007812 0.300781 16.25 -0.34375 C 15.488281 -1 14.914062 -1.78125 14.53125 -2.6875 L 9.875 0.65625 C 7.195312 0.6875 4.976562 -0.28125 3.21875 -2.25 C 1.457031 -4.21875 0.578125 -6.6875 0.578125 -9.65625 C 0.578125 -12.769531 1.59375 -15.34375 3.625 -17.375 C 5.664062 -19.414062 8.253906 -20.4375 11.390625 -20.4375 C 12.273438 -20.4375 13.160156 -20.328125 14.046875 -20.109375 L 14.046875 -26.640625 L 10.9375 -26.96875 L 10.65625 -28.953125 C 13.019531 -29.859375 15.46875 -30.335938 18 -30.390625 L 20.03125 -28.53125 L 20.03125 -4.703125 C 20.03125 -3.960938 20.375 -3.59375 21.0625 -3.59375 L 23.125 -3.84375 Z M 6.859375 -10.28125 C 6.859375 -8.46875 7.265625 -6.960938 8.078125 -5.765625 C 8.890625 -4.566406 10.007812 -3.96875 11.4375 -3.96875 C 12.175781 -3.96875 13.046875 -4.171875 14.046875 -4.578125 L 14.046875 -16.015625 C 12.722656 -16.679688 11.414062 -17.015625 10.125 -17.015625 L 9.375 -16.96875 C 7.695312 -15.40625 6.859375 -13.175781 6.859375 -10.28125 Z M 6.859375 -10.28125 "/></g></g></g><g fill="#272727" fill-opacity="1"><g transform="translate(160.572125, 233.010438)"><g><path d="M 22.96875 -17.59375 L 22.046875 -17.640625 C 20.953125 -17.640625 19.945312 -17.457031 19.03125 -17.09375 C 19.800781 -16.019531 20.1875 -14.820312 20.1875 -13.5 C 20.1875 -11.40625 19.285156 -9.695312 17.484375 -8.375 C 15.679688 -7.0625 13.445312 -6.40625 10.78125 -6.40625 L 9.375 -6.484375 L 7.234375 -4.625 C 9.398438 -4.59375 11.804688 -4.335938 14.453125 -3.859375 C 17.097656 -3.378906 19.425781 -2.804688 21.4375 -2.140625 C 21.707031 -1.347656 21.84375 -0.535156 21.84375 0.296875 C 21.84375 2.910156 20.601562 5.179688 18.125 7.109375 C 15.644531 9.035156 12.742188 10 9.421875 10 C 7.109375 10 5.109375 9.476562 3.421875 8.4375 C 1.742188 7.40625 0.878906 5.859375 0.828125 3.796875 L 5.375 -0.296875 L 2.765625 -0.453125 L 1.9375 -3.09375 C 3.375 -4.664062 4.914062 -5.988281 6.5625 -7.0625 C 5 -7.613281 3.757812 -8.457031 2.84375 -9.59375 C 1.9375 -10.738281 1.484375 -12.03125 1.484375 -13.46875 C 1.484375 -15.53125 2.382812 -17.25 4.1875 -18.625 C 5.988281 -20 8.226562 -20.6875 10.90625 -20.6875 C 13.132812 -20.6875 15.046875 -20.207031 16.640625 -19.25 C 17.578125 -21.476562 19.335938 -22.703125 21.921875 -22.921875 Z M 12.71875 -9.375 C 13.757812 -10.144531 14.28125 -11.394531 14.28125 -13.125 C 14.28125 -14.363281 13.910156 -15.453125 13.171875 -16.390625 C 12.429688 -17.328125 11.484375 -17.796875 10.328125 -17.796875 C 9.742188 -17.796875 9.132812 -17.660156 8.5 -17.390625 C 7.726562 -16.617188 7.34375 -15.363281 7.34375 -13.625 C 7.34375 -12.300781 7.671875 -11.210938 8.328125 -10.359375 C 8.992188 -9.503906 9.90625 -9.078125 11.0625 -9.078125 C 11.507812 -9.078125 12.0625 -9.175781 12.71875 -9.375 Z M 10.234375 5.375 C 11.722656 5.375 13.179688 5.097656 14.609375 4.546875 C 16.046875 3.992188 17.09375 3.222656 17.75 2.234375 C 15.28125 1.179688 11.976562 0.421875 7.84375 -0.046875 C 6.351562 1.085938 5.609375 2.09375 5.609375 2.96875 C 5.609375 3.71875 6.039062 4.304688 6.90625 4.734375 C 7.78125 5.160156 8.890625 5.375 10.234375 5.375 Z M 10.234375 5.375 "/></g></g></g><g fill="#272727" fill-opacity="1"><g transform="translate(184.063342, 233.010438)"><g><path d="M 16.84375 -9.828125 L 6.3125 -9.953125 C 6.425781 -7.910156 7.0625 -6.328125 8.21875 -5.203125 C 9.375 -4.078125 10.847656 -3.515625 12.640625 -3.515625 C 14.117188 -3.515625 15.878906 -4.007812 17.921875 -5 L 18.796875 -2.8125 L 12.3125 0.53125 L 10.984375 0.625 C 7.953125 0.625 5.457031 -0.332031 3.5 -2.25 C 1.550781 -4.164062 0.578125 -6.597656 0.578125 -9.546875 C 0.578125 -12.628906 1.566406 -15.222656 3.546875 -17.328125 C 5.535156 -19.429688 7.945312 -20.484375 10.78125 -20.484375 C 13.257812 -20.484375 15.289062 -19.71875 16.875 -18.1875 C 18.457031 -16.664062 19.25 -14.675781 19.25 -12.21875 Z M 9.328125 -17.34375 C 7.898438 -16.519531 6.976562 -15.003906 6.5625 -12.796875 L 13.703125 -13.171875 C 13.515625 -14.359375 13.015625 -15.347656 12.203125 -16.140625 C 11.390625 -16.941406 10.429688 -17.34375 9.328125 -17.34375 Z M 9.328125 -17.34375 "/></g></g></g><g fill="#272727" fill-opacity="1"><g transform="translate(204.045332, 233.010438)"><g><path d="M 10.859375 -4 C 11.628906 -4 12.785156 -4.179688 14.328125 -4.546875 L 14.78125 -2.515625 L 8.421875 0.65625 C 7.242188 0.71875 6.113281 0.320312 5.03125 -0.53125 C 3.957031 -1.382812 3.410156 -2.347656 3.390625 -3.421875 L 3.390625 -15.359375 L 0.5 -15.328125 L 0.328125 -17.46875 C 1.378906 -18.207031 2.492188 -18.867188 3.671875 -19.453125 L 5.734375 -24.8125 L 8.546875 -24.8125 L 9.25 -19.453125 L 14.90625 -19.453125 L 14.984375 -17.671875 L 12.96875 -15.28125 L 9.375 -15.28125 L 9.375 -5.90625 C 9.375 -5.1875 9.484375 -4.6875 9.703125 -4.40625 C 9.921875 -4.132812 10.304688 -4 10.859375 -4 Z M 10.859375 -4 "/></g></g></g><g fill="#457d58" fill-opacity="1"><g transform="translate(219.820303, 233.010438)"><g><path d="M 19.734375 -14.40625 C 21.828125 -14.019531 23.445312 -13.191406 24.59375 -11.921875 C 25.738281 -10.660156 26.3125 -9.191406 26.3125 -7.515625 C 26.3125 -5.285156 25.351562 -3.492188 23.4375 -2.140625 C 21.519531 -0.796875 18.910156 -0.0820312 15.609375 0 L 1.328125 0 L 1.078125 -1.328125 C 1.867188 -1.847656 3.035156 -2.410156 4.578125 -3.015625 L 4.578125 -24.703125 L 1.65625 -25.0625 L 1.6875 -27.171875 C 5.707031 -27.390625 10.003906 -27.5 14.578125 -27.5 C 17.710938 -27.5 20.226562 -26.851562 22.125 -25.5625 C 24.03125 -24.269531 24.984375 -22.59375 24.984375 -20.53125 C 24.984375 -19.144531 24.535156 -17.859375 23.640625 -16.671875 C 22.742188 -15.492188 21.441406 -14.738281 19.734375 -14.40625 Z M 10.859375 -23.65625 L 10.859375 -15.53125 L 12.765625 -15.53125 C 14.710938 -15.53125 16.175781 -15.945312 17.15625 -16.78125 C 18.132812 -17.625 18.625 -18.648438 18.625 -19.859375 C 18.625 -20.847656 18.3125 -21.773438 17.6875 -22.640625 C 17.070312 -23.515625 16.296875 -24.0625 15.359375 -24.28125 Z M 14.171875 -3.1875 L 14.859375 -3.140625 C 16.398438 -3.140625 17.582031 -3.578125 18.40625 -4.453125 C 19.238281 -5.335938 19.65625 -6.382812 19.65625 -7.59375 C 19.65625 -9 19.148438 -10.210938 18.140625 -11.234375 C 17.140625 -12.253906 15.882812 -12.773438 14.375 -12.796875 L 10.859375 -12.796875 L 10.859375 -3.515625 Z M 14.171875 -3.1875 "/></g></g></g><g fill="#457d58" fill-opacity="1"><g transform="translate(247.398742, 233.010438)"><g><path d="M 0.578125 -9.953125 C 0.578125 -13.066406 1.53125 -15.597656 3.4375 -17.546875 C 5.351562 -19.503906 7.742188 -20.484375 10.609375 -20.484375 C 13.472656 -20.484375 15.832031 -19.484375 17.6875 -17.484375 C 19.550781 -15.492188 20.484375 -12.914062 20.484375 -9.75 C 20.484375 -6.550781 19.566406 -3.988281 17.734375 -2.0625 C 15.898438 -0.132812 13.566406 0.828125 10.734375 0.828125 C 7.847656 0.828125 5.429688 -0.1875 3.484375 -2.21875 C 1.546875 -4.257812 0.578125 -6.835938 0.578125 -9.953125 Z M 12.4375 -2.765625 C 13.726562 -3.671875 14.375 -5.832031 14.375 -9.25 C 14.375 -11.507812 14.035156 -13.359375 13.359375 -14.796875 C 12.679688 -16.242188 11.65625 -16.96875 10.28125 -16.96875 C 9.457031 -16.96875 8.753906 -16.773438 8.171875 -16.390625 C 7.179688 -15.066406 6.6875 -12.945312 6.6875 -10.03125 C 6.6875 -7.832031 7.046875 -6.035156 7.765625 -4.640625 C 8.484375 -3.253906 9.570312 -2.5625 11.03125 -2.5625 C 11.519531 -2.5625 11.988281 -2.628906 12.4375 -2.765625 Z M 12.4375 -2.765625 "/></g></g></g><g fill="#457d58" fill-opacity="1"><g transform="translate(268.66057, 233.010438)"><g><path d="M 22.671875 -17.796875 C 21.929688 -17.359375 21.160156 -17 20.359375 -16.71875 C 18.703125 -10.851562 17.269531 -6.300781 16.0625 -3.0625 C 14.957031 -0.414062 13.535156 1.894531 11.796875 3.875 C 10.066406 5.863281 7.84375 7.628906 5.125 9.171875 L 1.9375 3.765625 C 5.570312 2.742188 8.367188 1.421875 10.328125 -0.203125 C 9.191406 -0.484375 8.160156 -0.9375 7.234375 -1.5625 L 1.90625 -16.265625 L -0.90625 -17.46875 L -0.90625 -19.609375 L 10.078125 -19.609375 L 10.203125 -17.796875 L 8.046875 -16.71875 L 10.40625 -8.84375 L 10.90625 -5.25 L 11.640625 -5.25 C 12.828125 -9.019531 13.707031 -12.816406 14.28125 -16.640625 L 12.140625 -17.46875 L 12.1875 -19.609375 L 22.546875 -19.609375 Z M 22.671875 -17.796875 "/></g></g></g><g fill="#457d58" fill-opacity="1"><g transform="translate(118.174561, 254.83072)"><g><path d="M 2.5 -3.359375 L 3.6875 -5.71875 L 5 -5.71875 L 3.09375 -2.21875 L 3.09375 0 L 1.890625 0 L 1.890625 -2.1875 L 0 -5.71875 L 1.3125 -5.71875 Z M 2.5 -3.359375 "/></g></g><g transform="translate(123.166764, 254.83072)"><g><path d="M 5.90625 -2.859375 C 5.90625 -1.921875 5.671875 -1.195312 5.203125 -0.6875 C 4.734375 -0.175781 4.0625 0.078125 3.1875 0.078125 C 2.3125 0.078125 1.640625 -0.175781 1.171875 -0.6875 C 0.703125 -1.195312 0.46875 -1.925781 0.46875 -2.875 C 0.46875 -3.820312 0.703125 -4.546875 1.171875 -5.046875 C 1.640625 -5.546875 2.3125 -5.796875 3.1875 -5.796875 C 4.070312 -5.796875 4.742188 -5.539062 5.203125 -5.03125 C 5.671875 -4.53125 5.90625 -3.804688 5.90625 -2.859375 Z M 1.734375 -2.859375 C 1.734375 -2.222656 1.851562 -1.742188 2.09375 -1.421875 C 2.34375 -1.097656 2.707031 -0.9375 3.1875 -0.9375 C 4.15625 -0.9375 4.640625 -1.578125 4.640625 -2.859375 C 4.640625 -4.148438 4.15625 -4.796875 3.1875 -4.796875 C 2.707031 -4.796875 2.34375 -4.632812 2.09375 -4.3125 C 1.851562 -3.988281 1.734375 -3.503906 1.734375 -2.859375 Z M 1.734375 -2.859375 "/></g></g><g transform="translate(129.53397, 254.83072)"><g><path d="M 5.375 -5.71875 L 5.375 -2.015625 C 5.375 -1.597656 5.273438 -1.226562 5.078125 -0.90625 C 4.890625 -0.59375 4.617188 -0.347656 4.265625 -0.171875 C 3.910156 -0.00390625 3.488281 0.078125 3 0.078125 C 2.269531 0.078125 1.703125 -0.109375 1.296875 -0.484375 C 0.890625 -0.859375 0.6875 -1.375 0.6875 -2.03125 L 0.6875 -5.71875 L 1.890625 -5.71875 L 1.890625 -2.21875 C 1.890625 -1.78125 1.976562 -1.457031 2.15625 -1.25 C 2.332031 -1.039062 2.625 -0.9375 3.03125 -0.9375 C 3.425781 -0.9375 3.710938 -1.039062 3.890625 -1.25 C 4.066406 -1.457031 4.15625 -1.78125 4.15625 -2.21875 L 4.15625 -5.71875 Z M 5.375 -5.71875 "/></g></g><g transform="translate(135.580864, 254.83072)"><g><path d="M 1.9375 -3.171875 L 2.328125 -3.171875 C 2.703125 -3.171875 2.976562 -3.234375 3.15625 -3.359375 C 3.34375 -3.492188 3.4375 -3.695312 3.4375 -3.96875 C 3.4375 -4.238281 3.34375 -4.429688 3.15625 -4.546875 C 2.976562 -4.660156 2.691406 -4.71875 2.296875 -4.71875 L 1.9375 -4.71875 Z M 1.9375 -2.1875 L 1.9375 0 L 0.71875 0 L 0.71875 -5.71875 L 2.390625 -5.71875 C 3.160156 -5.71875 3.734375 -5.570312 4.109375 -5.28125 C 4.484375 -5 4.671875 -4.570312 4.671875 -4 C 4.671875 -3.664062 4.578125 -3.367188 4.390625 -3.109375 C 4.203125 -2.847656 3.941406 -2.640625 3.609375 -2.484375 C 4.460938 -1.203125 5.019531 -0.375 5.28125 0 L 3.9375 0 L 2.578125 -2.1875 Z M 1.9375 -2.1875 "/></g></g><g transform="translate(140.862129, 254.83072)"><g/></g><g transform="translate(142.940261, 254.83072)"><g><path d="M 5.90625 -2.859375 C 5.90625 -1.921875 5.671875 -1.195312 5.203125 -0.6875 C 4.734375 -0.175781 4.0625 0.078125 3.1875 0.078125 C 2.3125 0.078125 1.640625 -0.175781 1.171875 -0.6875 C 0.703125 -1.195312 0.46875 -1.925781 0.46875 -2.875 C 0.46875 -3.820312 0.703125 -4.546875 1.171875 -5.046875 C 1.640625 -5.546875 2.3125 -5.796875 3.1875 -5.796875 C 4.070312 -5.796875 4.742188 -5.539062 5.203125 -5.03125 C 5.671875 -4.53125 5.90625 -3.804688 5.90625 -2.859375 Z M 1.734375 -2.859375 C 1.734375 -2.222656 1.851562 -1.742188 2.09375 -1.421875 C 2.34375 -1.097656 2.707031 -0.9375 3.1875 -0.9375 C 4.15625 -0.9375 4.640625 -1.578125 4.640625 -2.859375 C 4.640625 -4.148438 4.15625 -4.796875 3.1875 -4.796875 C 2.707031 -4.796875 2.34375 -4.632812 2.09375 -4.3125 C 1.851562 -3.988281 1.734375 -3.503906 1.734375 -2.859375 Z M 1.734375 -2.859375 "/></g></g><g transform="translate(149.307467, 254.83072)"><g><path d="M 5.78125 0 L 4.25 0 L 1.765625 -4.328125 L 1.734375 -4.328125 C 1.773438 -3.554688 1.796875 -3.007812 1.796875 -2.6875 L 1.796875 0 L 0.71875 0 L 0.71875 -5.71875 L 2.25 -5.71875 L 4.734375 -1.4375 L 4.75 -1.4375 C 4.71875 -2.175781 4.703125 -2.703125 4.703125 -3.015625 L 4.703125 -5.71875 L 5.78125 -5.71875 Z M 5.78125 0 "/></g></g><g transform="translate(155.811393, 254.83072)"><g><path d="M 0.71875 0 L 0.71875 -5.71875 L 1.9375 -5.71875 L 1.9375 -1 L 4.25 -1 L 4.25 0 Z M 0.71875 0 "/></g></g><g transform="translate(160.330938, 254.83072)"><g><path d="M 0.71875 0 L 0.71875 -5.71875 L 1.9375 -5.71875 L 1.9375 0 Z M 0.71875 0 "/></g></g><g transform="translate(162.979383, 254.83072)"><g><path d="M 5.78125 0 L 4.25 0 L 1.765625 -4.328125 L 1.734375 -4.328125 C 1.773438 -3.554688 1.796875 -3.007812 1.796875 -2.6875 L 1.796875 0 L 0.71875 0 L 0.71875 -5.71875 L 2.25 -5.71875 L 4.734375 -1.4375 L 4.75 -1.4375 C 4.71875 -2.175781 4.703125 -2.703125 4.703125 -3.015625 L 4.703125 -5.71875 L 5.78125 -5.71875 Z M 5.78125 0 "/></g></g><g transform="translate(169.483309, 254.83072)"><g><path d="M 4.015625 0 L 0.71875 0 L 0.71875 -5.71875 L 4.015625 -5.71875 L 4.015625 -4.71875 L 1.9375 -4.71875 L 1.9375 -3.46875 L 3.859375 -3.46875 L 3.859375 -2.46875 L 1.9375 -2.46875 L 1.9375 -1 L 4.015625 -1 Z M 4.015625 0 "/></g></g><g transform="translate(173.963791, 254.83072)"><g/></g><g transform="translate(176.041923, 254.83072)"><g><path d="M 1.90625 0 L 0.71875 0 L 0.71875 -5.71875 L 4 -5.71875 L 4 -4.71875 L 1.90625 -4.71875 L 1.90625 -3.25 L 3.84375 -3.25 L 3.84375 -2.265625 L 1.90625 -2.265625 Z M 1.90625 0 "/></g></g><g transform="translate(180.432561, 254.83072)"><g><path d="M 0.71875 0 L 0.71875 -5.71875 L 1.9375 -5.71875 L 1.9375 0 Z M 0.71875 0 "/></g></g><g transform="translate(183.081006, 254.83072)"><g><path d="M 5.78125 0 L 4.25 0 L 1.765625 -4.328125 L 1.734375 -4.328125 C 1.773438 -3.554688 1.796875 -3.007812 1.796875 -2.6875 L 1.796875 0 L 0.71875 0 L 0.71875 -5.71875 L 2.25 -5.71875 L 4.734375 -1.4375 L 4.75 -1.4375 C 4.71875 -2.175781 4.703125 -2.703125 4.703125 -3.015625 L 4.703125 -5.71875 L 5.78125 -5.71875 Z M 5.78125 0 "/></g></g><g transform="translate(189.584932, 254.83072)"><g><path d="M 4.21875 0 L 3.796875 -1.359375 L 1.71875 -1.359375 L 1.3125 0 L 0 0 L 2.015625 -5.734375 L 3.5 -5.734375 L 5.515625 0 Z M 3.515625 -2.375 C 3.128906 -3.601562 2.910156 -4.296875 2.859375 -4.453125 C 2.816406 -4.617188 2.785156 -4.75 2.765625 -4.84375 C 2.679688 -4.507812 2.4375 -3.6875 2.03125 -2.375 Z M 3.515625 -2.375 "/></g></g><g transform="translate(195.10448, 254.83072)"><g><path d="M 5.78125 0 L 4.25 0 L 1.765625 -4.328125 L 1.734375 -4.328125 C 1.773438 -3.554688 1.796875 -3.007812 1.796875 -2.6875 L 1.796875 0 L 0.71875 0 L 0.71875 -5.71875 L 2.25 -5.71875 L 4.734375 -1.4375 L 4.75 -1.4375 C 4.71875 -2.175781 4.703125 -2.703125 4.703125 -3.015625 L 4.703125 -5.71875 L 5.78125 -5.71875 Z M 5.78125 0 "/></g></g><g transform="translate(201.608406, 254.83072)"><g><path d="M 3.140625 -4.78125 C 2.691406 -4.78125 2.34375 -4.609375 2.09375 -4.265625 C 1.84375 -3.929688 1.71875 -3.457031 1.71875 -2.84375 C 1.71875 -1.570312 2.191406 -0.9375 3.140625 -0.9375 C 3.546875 -0.9375 4.035156 -1.035156 4.609375 -1.234375 L 4.609375 -0.21875 C 4.140625 -0.0195312 3.613281 0.078125 3.03125 0.078125 C 2.195312 0.078125 1.5625 -0.171875 1.125 -0.671875 C 0.6875 -1.179688 0.46875 -1.90625 0.46875 -2.84375 C 0.46875 -3.4375 0.570312 -3.957031 0.78125 -4.40625 C 1 -4.851562 1.3125 -5.195312 1.71875 -5.4375 C 2.125 -5.675781 2.597656 -5.796875 3.140625 -5.796875 C 3.703125 -5.796875 4.257812 -5.660156 4.8125 -5.390625 L 4.421875 -4.40625 C 4.210938 -4.507812 4 -4.597656 3.78125 -4.671875 C 3.5625 -4.742188 3.347656 -4.78125 3.140625 -4.78125 Z M 3.140625 -4.78125 "/></g></g><g transform="translate(206.706077, 254.83072)"><g><path d="M 0.71875 0 L 0.71875 -5.71875 L 1.9375 -5.71875 L 1.9375 0 Z M 0.71875 0 "/></g></g><g transform="translate(209.354523, 254.83072)"><g><path d="M 4.21875 0 L 3.796875 -1.359375 L 1.71875 -1.359375 L 1.3125 0 L 0 0 L 2.015625 -5.734375 L 3.5 -5.734375 L 5.515625 0 Z M 3.515625 -2.375 C 3.128906 -3.601562 2.910156 -4.296875 2.859375 -4.453125 C 2.816406 -4.617188 2.785156 -4.75 2.765625 -4.84375 C 2.679688 -4.507812 2.4375 -3.6875 2.03125 -2.375 Z M 3.515625 -2.375 "/></g></g><g transform="translate(214.874071, 254.83072)"><g><path d="M 0.71875 0 L 0.71875 -5.71875 L 1.9375 -5.71875 L 1.9375 -1 L 4.25 -1 L 4.25 0 Z M 0.71875 0 "/></g></g><g transform="translate(219.393616, 254.83072)"><g/></g><g transform="translate(221.471747, 254.83072)"><g><path d="M 4.21875 0 L 3.796875 -1.359375 L 1.71875 -1.359375 L 1.3125 0 L 0 0 L 2.015625 -5.734375 L 3.5 -5.734375 L 5.515625 0 Z M 3.515625 -2.375 C 3.128906 -3.601562 2.910156 -4.296875 2.859375 -4.453125 C 2.816406 -4.617188 2.785156 -4.75 2.765625 -4.84375 C 2.679688 -4.507812 2.4375 -3.6875 2.03125 -2.375 Z M 3.515625 -2.375 "/></g></g><g transform="translate(226.991295, 254.83072)"><g><path d="M 5.453125 -2.90625 C 5.453125 -1.96875 5.1875 -1.25 4.65625 -0.75 C 4.125 -0.25 3.351562 0 2.34375 0 L 0.71875 0 L 0.71875 -5.71875 L 2.515625 -5.71875 C 3.441406 -5.71875 4.160156 -5.46875 4.671875 -4.96875 C 5.191406 -4.476562 5.453125 -3.789062 5.453125 -2.90625 Z M 4.203125 -2.875 C 4.203125 -4.101562 3.660156 -4.71875 2.578125 -4.71875 L 1.9375 -4.71875 L 1.9375 -1 L 2.453125 -1 C 3.617188 -1 4.203125 -1.625 4.203125 -2.875 Z M 4.203125 -2.875 "/></g></g><g transform="translate(232.913187, 254.83072)"><g><path d="M 3.984375 -5.71875 L 5.203125 -5.71875 L 3.265625 0 L 1.9375 0 L 0 -5.71875 L 1.21875 -5.71875 L 2.296875 -2.3125 C 2.359375 -2.113281 2.421875 -1.878906 2.484375 -1.609375 C 2.546875 -1.347656 2.585938 -1.164062 2.609375 -1.0625 C 2.628906 -1.300781 2.722656 -1.71875 2.890625 -2.3125 Z M 3.984375 -5.71875 "/></g></g><g transform="translate(238.112422, 254.83072)"><g><path d="M 0.71875 0 L 0.71875 -5.71875 L 1.9375 -5.71875 L 1.9375 0 Z M 0.71875 0 "/></g></g><g transform="translate(240.760867, 254.83072)"><g><path d="M 4.09375 -1.59375 C 4.09375 -1.070312 3.90625 -0.660156 3.53125 -0.359375 C 3.164062 -0.0664062 2.648438 0.078125 1.984375 0.078125 C 1.378906 0.078125 0.84375 -0.0351562 0.375 -0.265625 L 0.375 -1.390625 C 0.757812 -1.222656 1.082031 -1.101562 1.34375 -1.03125 C 1.613281 -0.957031 1.859375 -0.921875 2.078125 -0.921875 C 2.347656 -0.921875 2.550781 -0.972656 2.6875 -1.078125 C 2.832031 -1.179688 2.90625 -1.332031 2.90625 -1.53125 C 2.90625 -1.644531 2.875 -1.742188 2.8125 -1.828125 C 2.75 -1.910156 2.65625 -1.992188 2.53125 -2.078125 C 2.414062 -2.160156 2.171875 -2.289062 1.796875 -2.46875 C 1.441406 -2.632812 1.175781 -2.789062 1 -2.9375 C 0.832031 -3.09375 0.695312 -3.269531 0.59375 -3.46875 C 0.488281 -3.664062 0.4375 -3.898438 0.4375 -4.171875 C 0.4375 -4.671875 0.609375 -5.066406 0.953125 -5.359375 C 1.296875 -5.648438 1.769531 -5.796875 2.375 -5.796875 C 2.664062 -5.796875 2.945312 -5.757812 3.21875 -5.6875 C 3.488281 -5.613281 3.769531 -5.515625 4.0625 -5.390625 L 3.671875 -4.453125 C 3.367188 -4.578125 3.117188 -4.660156 2.921875 -4.703125 C 2.722656 -4.753906 2.523438 -4.78125 2.328125 -4.78125 C 2.097656 -4.78125 1.921875 -4.726562 1.796875 -4.625 C 1.679688 -4.519531 1.625 -4.378906 1.625 -4.203125 C 1.625 -4.097656 1.644531 -4.003906 1.6875 -3.921875 C 1.738281 -3.847656 1.816406 -3.773438 1.921875 -3.703125 C 2.035156 -3.628906 2.296875 -3.492188 2.703125 -3.296875 C 3.234375 -3.046875 3.597656 -2.789062 3.796875 -2.53125 C 3.992188 -2.269531 4.09375 -1.957031 4.09375 -1.59375 Z M 4.09375 -1.59375 "/></g></g><g transform="translate(245.16713, 254.83072)"><g><path d="M 5.90625 -2.859375 C 5.90625 -1.921875 5.671875 -1.195312 5.203125 -0.6875 C 4.734375 -0.175781 4.0625 0.078125 3.1875 0.078125 C 2.3125 0.078125 1.640625 -0.175781 1.171875 -0.6875 C 0.703125 -1.195312 0.46875 -1.925781 0.46875 -2.875 C 0.46875 -3.820312 0.703125 -4.546875 1.171875 -5.046875 C 1.640625 -5.546875 2.3125 -5.796875 3.1875 -5.796875 C 4.070312 -5.796875 4.742188 -5.539062 5.203125 -5.03125 C 5.671875 -4.53125 5.90625 -3.804688 5.90625 -2.859375 Z M 1.734375 -2.859375 C 1.734375 -2.222656 1.851562 -1.742188 2.09375 -1.421875 C 2.34375 -1.097656 2.707031 -0.9375 3.1875 -0.9375 C 4.15625 -0.9375 4.640625 -1.578125 4.640625 -2.859375 C 4.640625 -4.148438 4.15625 -4.796875 3.1875 -4.796875 C 2.707031 -4.796875 2.34375 -4.632812 2.09375 -4.3125 C 1.851562 -3.988281 1.734375 -3.503906 1.734375 -2.859375 Z M 1.734375 -2.859375 "/></g></g><g transform="translate(251.534337, 254.83072)"><g><path d="M 1.9375 -3.171875 L 2.328125 -3.171875 C 2.703125 -3.171875 2.976562 -3.234375 3.15625 -3.359375 C 3.34375 -3.492188 3.4375 -3.695312 3.4375 -3.96875 C 3.4375 -4.238281 3.34375 -4.429688 3.15625 -4.546875 C 2.976562 -4.660156 2.691406 -4.71875 2.296875 -4.71875 L 1.9375 -4.71875 Z M 1.9375 -2.1875 L 1.9375 0 L 0.71875 0 L 0.71875 -5.71875 L 2.390625 -5.71875 C 3.160156 -5.71875 3.734375 -5.570312 4.109375 -5.28125 C 4.484375 -5 4.671875 -4.570312 4.671875 -4 C 4.671875 -3.664062 4.578125 -3.367188 4.390625 -3.109375 C 4.203125 -2.847656 3.941406 -2.640625 3.609375 -2.484375 C 4.460938 -1.203125 5.019531 -0.375 5.28125 0 L 3.9375 0 L 2.578125 -2.1875 Z M 1.9375 -2.1875 "/></g></g></g></svg>