<svg xmlns="http://www.w3.org/2000/svg" xmlns:xlink="http://www.w3.org/1999/xlink" zoomAndPan="magnify" preserveAspectRatio="xMidYMid meet" version="1.0" viewBox="43.65 145.98 265.73 85.84"><defs><g/><clipPath id="350b5158f0"><path d="M 53 145.988281 L 150.148438 145.988281 L 150.148438 188 L 53 188 Z M 53 145.988281 " clip-rule="nonzero"/></clipPath><clipPath id="27300b32ba"><path d="M 43.648438 187 L 141 187 L 141 229 L 43.648438 229 Z M 43.648438 187 " clip-rule="nonzero"/></clipPath></defs><g clip-path="url(#350b5158f0)"><path fill="#00bf63" d="M 53.566406 187.492188 L 69.601562 187.492188 L 82.222656 171.527344 L 66.191406 171.527344 Z M 134.390625 145.984375 L 100.839844 187.492188 L 116.875 187.492188 L 150.425781 145.984375 Z M 102.269531 156.414062 L 77.203125 187.492188 L 93.234375 187.492188 L 118.300781 156.414062 L 102.269531 156.414062 " fill-opacity="1" fill-rule="nonzero"/></g><g clip-path="url(#27300b32ba)"><path fill="#4f4c4c" d="M 140.511719 187.492188 L 124.476562 187.492188 L 111.855469 203.457031 L 127.886719 203.457031 Z M 59.683594 229 L 93.234375 187.492188 L 77.203125 187.492188 L 43.652344 229 Z M 91.808594 218.570312 L 116.871094 187.492188 L 100.839844 187.492188 L 75.777344 218.570312 L 91.808594 218.570312 " fill-opacity="1" fill-rule="nonzero"/></g><g fill="#00bf63" fill-opacity="1"><g transform="translate(155.680835, 181.077072)"><g><path d="M 23.5625 -18.53125 C 24.90625 -17.601562 25.976562 -16.410156 26.78125 -14.953125 C 27.582031 -13.492188 27.984375 -11.882812 27.984375 -10.125 C 27.984375 -8.71875 27.710938 -7.394531 27.171875 -6.15625 C 26.628906 -4.925781 25.890625 -3.851562 24.953125 -2.9375 C 24.023438 -2.03125 22.945312 -1.3125 21.71875 -0.78125 C 20.488281 -0.257812 19.171875 0 17.765625 0 L 2.296875 0 L 2.296875 -34.03125 L 17.28125 -34.03125 C 18.5625 -34.03125 19.757812 -33.78125 20.875 -33.28125 C 22 -32.789062 22.984375 -32.128906 23.828125 -31.296875 C 24.679688 -30.460938 25.347656 -29.484375 25.828125 -28.359375 C 26.304688 -27.242188 26.546875 -26.046875 26.546875 -24.765625 C 26.546875 -23.390625 26.28125 -22.179688 25.75 -21.140625 C 25.21875 -20.097656 24.488281 -19.226562 23.5625 -18.53125 Z M 9.59375 -21.265625 L 17.28125 -21.265625 C 18.144531 -21.265625 18.878906 -21.566406 19.484375 -22.171875 C 20.097656 -22.785156 20.40625 -23.523438 20.40625 -24.390625 C 20.40625 -25.253906 20.097656 -25.972656 19.484375 -26.546875 C 18.878906 -27.117188 18.144531 -27.40625 17.28125 -27.40625 L 9.59375 -27.40625 Z M 17.765625 -6.578125 C 18.722656 -6.578125 19.535156 -6.984375 20.203125 -7.796875 C 20.878906 -8.617188 21.21875 -9.570312 21.21875 -10.65625 C 21.21875 -11.78125 20.878906 -12.722656 20.203125 -13.484375 C 19.535156 -14.253906 18.722656 -14.640625 17.765625 -14.640625 L 9.59375 -14.640625 L 9.59375 -6.578125 Z M 17.765625 -6.578125 "/></g></g></g><g fill="#00bf63" fill-opacity="1"><g transform="translate(184.432787, 181.077072)"><g><path d="M 17.234375 -23.8125 L 23.859375 -23.8125 L 23.859375 0 L 18.1875 0 L 17.234375 -1.828125 C 16.460938 -1.285156 15.585938 -0.84375 14.609375 -0.5 C 13.640625 -0.164062 12.59375 0 11.46875 0 C 10.601562 0 9.617188 -0.125 8.515625 -0.375 C 7.410156 -0.632812 6.378906 -1.113281 5.421875 -1.8125 C 4.460938 -2.519531 3.65625 -3.5 3 -4.75 C 2.34375 -6 2.015625 -7.613281 2.015625 -9.59375 L 2.015625 -23.8125 L 8.6875 -23.8125 L 8.6875 -9.84375 C 8.6875 -9.101562 8.804688 -8.476562 9.046875 -7.96875 C 9.285156 -7.457031 9.601562 -7.046875 10 -6.734375 C 10.40625 -6.429688 10.863281 -6.207031 11.375 -6.0625 C 11.882812 -5.925781 12.410156 -5.859375 12.953125 -5.859375 C 13.367188 -5.859375 13.828125 -5.925781 14.328125 -6.0625 C 14.828125 -6.207031 15.289062 -6.441406 15.71875 -6.765625 C 16.15625 -7.085938 16.515625 -7.503906 16.796875 -8.015625 C 17.085938 -8.523438 17.234375 -9.132812 17.234375 -9.84375 Z M 17.234375 -23.8125 "/></g></g></g><g fill="#00bf63" fill-opacity="1"><g transform="translate(209.536739, 181.077072)"><g><path d="M 26.15625 -35.046875 L 26.15625 0 L 20.5 0 L 19.53125 -2.0625 C 18.800781 -1.289062 17.785156 -0.65625 16.484375 -0.15625 C 15.191406 0.332031 13.84375 0.578125 12.4375 0.578125 C 10.738281 0.578125 9.164062 0.25 7.71875 -0.40625 C 6.28125 -1.0625 5.039062 -1.957031 4 -3.09375 C 2.96875 -4.226562 2.15625 -5.554688 1.5625 -7.078125 C 0.96875 -8.597656 0.671875 -10.222656 0.671875 -11.953125 C 0.671875 -13.679688 0.96875 -15.304688 1.5625 -16.828125 C 2.15625 -18.347656 2.96875 -19.675781 4 -20.8125 C 5.039062 -21.945312 6.28125 -22.84375 7.71875 -23.5 C 9.164062 -24.15625 10.738281 -24.484375 12.4375 -24.484375 C 13.9375 -24.484375 15.269531 -24.304688 16.4375 -23.953125 C 17.601562 -23.597656 18.632812 -23.003906 19.53125 -22.171875 L 19.53125 -35.046875 Z M 19.53125 -11.859375 C 19.53125 -13.109375 19.367188 -14.15625 19.046875 -15 C 18.734375 -15.84375 18.285156 -16.53125 17.703125 -17.0625 C 17.128906 -17.59375 16.46875 -17.976562 15.71875 -18.21875 C 14.96875 -18.457031 14.160156 -18.578125 13.296875 -18.578125 C 12.429688 -18.578125 11.625 -18.398438 10.875 -18.046875 C 10.125 -17.691406 9.46875 -17.21875 8.90625 -16.625 C 8.34375 -16.039062 7.898438 -15.335938 7.578125 -14.515625 C 7.265625 -13.703125 7.109375 -12.847656 7.109375 -11.953125 C 7.109375 -11.023438 7.265625 -10.160156 7.578125 -9.359375 C 7.898438 -8.554688 8.34375 -7.859375 8.90625 -7.265625 C 9.46875 -6.679688 10.125 -6.210938 10.875 -5.859375 C 11.625 -5.503906 12.429688 -5.328125 13.296875 -5.328125 C 15.023438 -5.328125 16.488281 -5.863281 17.6875 -6.9375 C 18.882812 -8.007812 19.5 -9.648438 19.53125 -11.859375 Z M 19.53125 -11.859375 "/></g></g></g><g fill="#00bf63" fill-opacity="1"><g transform="translate(236.896689, 181.077072)"><g><path d="M 20.828125 -23.8125 L 26.5 -23.8125 L 26.5 -8.0625 C 26.5 -6.238281 26.472656 -4.613281 26.421875 -3.1875 C 26.378906 -1.769531 26.257812 -0.492188 26.0625 0.640625 C 25.875 1.785156 25.5625 2.804688 25.125 3.703125 C 24.695312 4.597656 24.097656 5.425781 23.328125 6.1875 C 21.921875 7.5625 20.34375 8.503906 18.59375 9.015625 C 16.851562 9.535156 15.023438 9.796875 13.109375 9.796875 C 11.472656 9.796875 9.9375 9.601562 8.5 9.21875 C 7.0625 8.832031 5.765625 8.300781 4.609375 7.625 L 4.609375 1.4375 C 4.898438 1.882812 5.304688 2.285156 5.828125 2.640625 C 6.359375 2.992188 6.96875 3.296875 7.65625 3.546875 C 8.34375 3.804688 9.078125 4.007812 9.859375 4.15625 C 10.648438 4.300781 11.441406 4.375 12.234375 4.375 C 13.296875 4.375 14.289062 4.234375 15.21875 3.953125 C 16.144531 3.679688 16.953125 3.242188 17.640625 2.640625 C 18.328125 2.035156 18.867188 1.273438 19.265625 0.359375 C 19.671875 -0.554688 19.875 -1.664062 19.875 -2.96875 L 19.875 -3.453125 C 18.945312 -2.617188 17.875 -1.953125 16.65625 -1.453125 C 15.4375 -0.960938 14.109375 -0.71875 12.671875 -0.71875 C 11.066406 -0.71875 9.582031 -1.03125 8.21875 -1.65625 C 6.863281 -2.28125 5.691406 -3.128906 4.703125 -4.203125 C 3.710938 -5.273438 2.9375 -6.535156 2.375 -7.984375 C 1.8125 -9.441406 1.53125 -10.988281 1.53125 -12.625 C 1.53125 -14.257812 1.8125 -15.796875 2.375 -17.234375 C 2.9375 -18.671875 3.710938 -19.925781 4.703125 -21 C 5.691406 -22.070312 6.863281 -22.921875 8.21875 -23.546875 C 9.582031 -24.171875 11.066406 -24.484375 12.671875 -24.484375 C 14.171875 -24.484375 15.53125 -24.28125 16.75 -23.875 C 17.96875 -23.476562 19.007812 -22.847656 19.875 -21.984375 Z M 14.015625 -6.625 C 15.035156 -6.625 15.914062 -6.804688 16.65625 -7.171875 C 17.394531 -7.546875 18.003906 -8.019531 18.484375 -8.59375 C 18.960938 -9.164062 19.3125 -9.800781 19.53125 -10.5 C 19.757812 -11.207031 19.875 -11.898438 19.875 -12.578125 C 19.875 -13.316406 19.753906 -14.046875 19.515625 -14.765625 C 19.273438 -15.484375 18.914062 -16.117188 18.4375 -16.671875 C 17.957031 -17.234375 17.347656 -17.691406 16.609375 -18.046875 C 15.867188 -18.398438 15.003906 -18.578125 14.015625 -18.578125 C 13.179688 -18.578125 12.410156 -18.414062 11.703125 -18.09375 C 11.003906 -17.769531 10.390625 -17.335938 9.859375 -16.796875 C 9.335938 -16.253906 8.921875 -15.625 8.609375 -14.90625 C 8.304688 -14.1875 8.15625 -13.410156 8.15625 -12.578125 C 8.15625 -11.742188 8.304688 -10.96875 8.609375 -10.25 C 8.921875 -9.53125 9.335938 -8.894531 9.859375 -8.34375 C 10.390625 -7.800781 11.003906 -7.378906 11.703125 -7.078125 C 12.410156 -6.773438 13.179688 -6.625 14.015625 -6.625 Z M 14.015625 -6.625 "/></g></g></g><g fill="#00bf63" fill-opacity="1"><g transform="translate(264.400639, 181.077072)"><g><path d="M 13.921875 -24.484375 C 15.710938 -24.484375 17.34375 -24.117188 18.8125 -23.390625 C 20.289062 -22.671875 21.554688 -21.726562 22.609375 -20.5625 C 23.660156 -19.394531 24.472656 -18.050781 25.046875 -16.53125 C 25.628906 -15.007812 25.921875 -13.453125 25.921875 -11.859375 C 25.921875 -10.898438 25.789062 -9.875 25.53125 -8.78125 L 8.546875 -8.78125 C 9.179688 -7.695312 10.09375 -6.773438 11.28125 -6.015625 C 12.46875 -5.265625 13.75 -4.890625 15.125 -4.890625 C 16.5 -4.890625 17.703125 -5 18.734375 -5.21875 C 19.773438 -5.445312 20.765625 -5.738281 21.703125 -6.09375 L 23.90625 -2.015625 C 22.71875 -1.179688 21.363281 -0.539062 19.84375 -0.09375 C 18.320312 0.351562 16.695312 0.578125 14.96875 0.578125 C 13.082031 0.578125 11.320312 0.25 9.6875 -0.40625 C 8.0625 -1.0625 6.640625 -1.945312 5.421875 -3.0625 C 4.203125 -4.1875 3.238281 -5.515625 2.53125 -7.046875 C 1.832031 -8.585938 1.484375 -10.222656 1.484375 -11.953125 C 1.484375 -13.648438 1.800781 -15.257812 2.4375 -16.78125 C 3.082031 -18.300781 3.972656 -19.628906 5.109375 -20.765625 C 6.242188 -21.898438 7.5625 -22.800781 9.0625 -23.46875 C 10.570312 -24.144531 12.191406 -24.484375 13.921875 -24.484375 Z M 19.34375 -13.921875 C 18.957031 -15.296875 18.269531 -16.414062 17.28125 -17.28125 C 16.289062 -18.144531 15.171875 -18.578125 13.921875 -18.578125 C 12.640625 -18.578125 11.476562 -18.144531 10.4375 -17.28125 C 9.394531 -16.414062 8.679688 -15.296875 8.296875 -13.921875 Z M 19.34375 -13.921875 "/></g></g></g><g fill="#00bf63" fill-opacity="1"><g transform="translate(292.000594, 181.077072)"><g><path d="M 10.9375 -8.546875 C 10.9375 -7.421875 11.28125 -6.554688 11.96875 -5.953125 C 12.664062 -5.347656 13.570312 -5.046875 14.6875 -5.046875 C 15.582031 -5.046875 16.476562 -5.21875 17.375 -5.5625 L 17.375 0 C 16.570312 0.257812 15.722656 0.472656 14.828125 0.640625 C 13.929688 0.816406 13.035156 0.90625 12.140625 0.90625 C 11.117188 0.90625 10.144531 0.773438 9.21875 0.515625 C 8.289062 0.265625 7.457031 -0.171875 6.71875 -0.796875 C 5.976562 -1.421875 5.390625 -2.25 4.953125 -3.28125 C 4.523438 -4.320312 4.3125 -5.613281 4.3125 -7.15625 L 4.3125 -17.90625 L 0.90625 -17.90625 L 0.90625 -22.375 L 4.3125 -23.8125 L 4.3125 -29.140625 L 10.9375 -29.140625 L 10.9375 -23.8125 L 17.375 -23.8125 L 17.375 -17.90625 L 10.9375 -17.90625 Z M 10.9375 -8.546875 "/></g></g></g><g fill="#4f4c4c" fill-opacity="1"><g transform="translate(155.680835, 222.321811)"><g><path d="M 23.5625 -18.53125 C 24.90625 -17.601562 25.976562 -16.410156 26.78125 -14.953125 C 27.582031 -13.492188 27.984375 -11.882812 27.984375 -10.125 C 27.984375 -8.71875 27.710938 -7.394531 27.171875 -6.15625 C 26.628906 -4.925781 25.890625 -3.851562 24.953125 -2.9375 C 24.023438 -2.03125 22.945312 -1.3125 21.71875 -0.78125 C 20.488281 -0.257812 19.171875 0 17.765625 0 L 2.296875 0 L 2.296875 -34.03125 L 17.28125 -34.03125 C 18.5625 -34.03125 19.757812 -33.78125 20.875 -33.28125 C 22 -32.789062 22.984375 -32.128906 23.828125 -31.296875 C 24.679688 -30.460938 25.347656 -29.484375 25.828125 -28.359375 C 26.304688 -27.242188 26.546875 -26.046875 26.546875 -24.765625 C 26.546875 -23.390625 26.28125 -22.179688 25.75 -21.140625 C 25.21875 -20.097656 24.488281 -19.226562 23.5625 -18.53125 Z M 9.59375 -21.265625 L 17.28125 -21.265625 C 18.144531 -21.265625 18.878906 -21.566406 19.484375 -22.171875 C 20.097656 -22.785156 20.40625 -23.523438 20.40625 -24.390625 C 20.40625 -25.253906 20.097656 -25.972656 19.484375 -26.546875 C 18.878906 -27.117188 18.144531 -27.40625 17.28125 -27.40625 L 9.59375 -27.40625 Z M 17.765625 -6.578125 C 18.722656 -6.578125 19.535156 -6.984375 20.203125 -7.796875 C 20.878906 -8.617188 21.21875 -9.570312 21.21875 -10.65625 C 21.21875 -11.78125 20.878906 -12.722656 20.203125 -13.484375 C 19.535156 -14.253906 18.722656 -14.640625 17.765625 -14.640625 L 9.59375 -14.640625 L 9.59375 -6.578125 Z M 17.765625 -6.578125 "/></g></g></g><g fill="#4f4c4c" fill-opacity="1"><g transform="translate(184.432787, 222.321811)"><g><path d="M 13.875 -24.484375 C 15.570312 -24.484375 17.171875 -24.15625 18.671875 -23.5 C 20.171875 -22.84375 21.476562 -21.945312 22.59375 -20.8125 C 23.71875 -19.675781 24.609375 -18.347656 25.265625 -16.828125 C 25.921875 -15.304688 26.25 -13.679688 26.25 -11.953125 C 26.25 -10.222656 25.921875 -8.597656 25.265625 -7.078125 C 24.609375 -5.554688 23.71875 -4.226562 22.59375 -3.09375 C 21.476562 -1.957031 20.171875 -1.0625 18.671875 -0.40625 C 17.171875 0.25 15.570312 0.578125 13.875 0.578125 C 12.144531 0.578125 10.523438 0.25 9.015625 -0.40625 C 7.515625 -1.0625 6.203125 -1.957031 5.078125 -3.09375 C 3.960938 -4.226562 3.078125 -5.554688 2.421875 -7.078125 C 1.765625 -8.597656 1.4375 -10.222656 1.4375 -11.953125 C 1.4375 -13.679688 1.765625 -15.304688 2.421875 -16.828125 C 3.078125 -18.347656 3.960938 -19.675781 5.078125 -20.8125 C 6.203125 -21.945312 7.515625 -22.84375 9.015625 -23.5 C 10.523438 -24.15625 12.144531 -24.484375 13.875 -24.484375 Z M 13.875 -5.234375 C 14.675781 -5.234375 15.421875 -5.390625 16.109375 -5.703125 C 16.796875 -6.023438 17.398438 -6.46875 17.921875 -7.03125 C 18.453125 -7.59375 18.867188 -8.265625 19.171875 -9.046875 C 19.472656 -9.828125 19.625 -10.695312 19.625 -11.65625 C 19.625 -12.625 19.472656 -13.519531 19.171875 -14.34375 C 18.867188 -15.175781 18.453125 -15.90625 17.921875 -16.53125 C 17.398438 -17.15625 16.796875 -17.648438 16.109375 -18.015625 C 15.421875 -18.390625 14.675781 -18.578125 13.875 -18.578125 C 13.070312 -18.578125 12.316406 -18.390625 11.609375 -18.015625 C 10.910156 -17.648438 10.296875 -17.15625 9.765625 -16.53125 C 9.234375 -15.90625 8.816406 -15.175781 8.515625 -14.34375 C 8.210938 -13.519531 8.0625 -12.625 8.0625 -11.65625 C 8.0625 -10.695312 8.210938 -9.828125 8.515625 -9.046875 C 8.816406 -8.265625 9.234375 -7.59375 9.765625 -7.03125 C 10.296875 -6.46875 10.910156 -6.023438 11.609375 -5.703125 C 12.316406 -5.390625 13.070312 -5.234375 13.875 -5.234375 Z M 13.875 -5.234375 "/></g></g></g><g fill="#4f4c4c" fill-opacity="1"><g transform="translate(211.024735, 222.321811)"><g><path d="M 20.546875 -23.8125 L 27.796875 -23.8125 L 12.765625 9.5 L 5.515625 9.5 L 11.421875 -3.59375 L 1.34375 -23.8125 L 8.734375 -23.8125 L 14.921875 -11.375 Z M 20.546875 -23.8125 "/></g></g></g></svg>